<?xml version="1.0" encoding="UTF-8" standalone="no"?>
<svg
   fill="none"
   viewBox="0 0 24 24"
   stroke-width="1.5"
   stroke="currentColor"
   class="size-6"
   version="1.1"
   id="svg1"
   sodipodi:docname="admin.svg"
   inkscape:version="1.4 (e7c3feb100, 2024-10-09)"
   xmlns:inkscape="http://www.inkscape.org/namespaces/inkscape"
   xmlns:sodipodi="http://sodipodi.sourceforge.net/DTD/sodipodi-0.dtd"
   xmlns="http://www.w3.org/2000/svg"
   xmlns:svg="http://www.w3.org/2000/svg">
  <defs
     id="defs1" />
  <sodipodi:namedview
     id="namedview1"
     pagecolor="#ffffff"
     bordercolor="#000000"
     borderopacity="0.25"
     inkscape:showpageshadow="2"
     inkscape:pageopacity="0.0"
     inkscape:pagecheckerboard="0"
     inkscape:deskcolor="#d1d1d1"
     inkscape:zoom="33.875"
     inkscape:cx="12"
     inkscape:cy="12.01476"
     inkscape:window-width="1239"
     inkscape:window-height="1045"
     inkscape:window-x="123"
     inkscape:window-y="78"
     inkscape:window-maximized="0"
     inkscape:current-layer="svg1" />
  <path
     stroke-linecap="round"
     stroke-linejoin="round"
     d="M10.5 6h9.75M10.5 6a1.5 1.5 0 1 1-3 0m3 0a1.5 1.5 0 1 0-3 0M3.75 6H7.5m3 12h9.75m-9.75 0a1.5 1.5 0 0 1-3 0m3 0a1.5 1.5 0 0 0-3 0m-3.75 0H7.5m9-6h3.75m-3.75 0a1.5 1.5 0 0 1-3 0m3 0a1.5 1.5 0 0 0-3 0m-9.75 0h9.75"
     id="path1" />
  <path
     style="fill:#b3b3b3;stroke-width:0.0442804"
     d="m 14.597782,14.198826 c -0.696075,-0.13845 -1.288521,-0.59208 -1.588508,-1.216302 l -0.123665,-0.257328 -4.6494466,-0.0013 -4.6494465,-0.0013 -0.1496934,-0.0697 C 3.1952329,12.540378 3.0110701,12.258064 3.0110701,12 c 0,-0.258064 0.1841628,-0.540378 0.4259524,-0.652966 l 0.1496934,-0.0697 4.6494465,-0.0013 4.6494466,-0.0013 0.123696,-0.257328 c 0.354005,-0.736444 1.058896,-1.1993981 1.883684,-1.2371553 0.629045,-0.028797 1.158117,0.163529 1.626753,0.5913493 0.208209,0.190075 0.458738,0.547348 0.53634,0.764861 l 0.05003,0.140222 1.653588,2.88e-4 1.653587,2.89e-4 0.149693,0.0697 c 0.24179,0.112588 0.425953,0.394902 0.425953,0.652966 0,0.258064 -0.184163,0.540378 -0.425953,0.652966 l -0.149693,0.0697 -1.653587,2.89e-4 -1.653588,2.88e-4 -0.05003,0.140222 c -0.0776,0.217513 -0.328131,0.574786 -0.53634,0.764861 -0.313199,0.28592 -0.672495,0.472261 -1.07514,0.557597 -0.211067,0.04473 -0.652931,0.05146 -0.84682,0.0129 z m 0.747022,-1.522523 c 0.712426,-0.355017 0.456531,-1.429071 -0.340478,-1.429071 -0.312312,0 -0.52795,0.124402 -0.671854,0.387595 -0.07281,0.133163 -0.08659,0.191597 -0.08611,0.365173 5.92e-4,0.214381 0.03737,0.319579 0.176961,0.506173 0.180126,0.240778 0.617617,0.321551 0.921481,0.17013 z"
     id="path2" />
  <path
     style="fill:#b3b3b3;stroke-width:0.0442804"
     d="M 8.7232472,8.2196469 C 8.6907749,8.2121745 8.5917352,8.1913441 8.5031593,8.1733568 7.8644942,8.0436614 7.2367303,7.5231628 6.9645423,6.8976413 L 6.8929889,6.7332032 5.2103321,6.7245352 3.5276753,6.7158672 3.3903337,6.6351296 C 2.954521,6.3789331 2.8918585,5.7901966 3.2654866,5.4621468 3.4931139,5.2622874 3.4147901,5.2702579 5.2436615,5.2608417 l 1.6569454,-0.00853 0.049547,-0.129737 C 7.022519,4.9330888 7.2134982,4.6501957 7.4036021,4.4508918 7.7045618,4.1353669 8.1537869,3.8901438 8.5839147,3.8065826 c 0.2715894,-0.052762 0.8264319,-0.02123 1.0685848,0.060728 0.6408275,0.2168916 1.1174595,0.6403643 1.3865135,1.2318747 l 0.07029,0.1545359 4.651989,0.00783 c 5.155332,0.00867 4.73533,-0.00827 4.973218,0.2005999 0.373628,0.3280498 0.310966,0.9167863 -0.124847,1.1729828 l -0.137341,0.080738 -4.678967,0.00888 -4.678967,0.00888 -0.125352,0.2568068 C 10.774949,7.4290249 10.438769,7.7649399 9.9926199,7.9860576 9.8464945,8.0584794 9.6472325,8.1386303 9.5498155,8.1641709 9.3750214,8.2099976 8.837959,8.2460431 8.7232472,8.2196469 Z M 9.298893,6.6987885 C 10.056146,6.3564067 9.8301092,5.2428347 9.00369,5.2444674 8.7834379,5.2449026 8.6476889,5.2946821 8.4905789,5.4326265 8.3160215,5.5858898 8.2530258,5.7336872 8.251892,5.9926199 8.250756,6.2520709 8.3058949,6.3885693 8.4801494,6.5576773 8.6854028,6.7568691 9.0365721,6.8173934 9.298893,6.6987885 Z"
     id="path3" />
  <path
     style="fill:#b3b3b3;stroke-width:0.0442804"
     d="M 8.5160463,20.179855 C 8.1080038,20.086795 7.6908794,19.850289 7.4036021,19.549108 7.2134982,19.349804 7.022519,19.066911 6.9501541,18.877426 l -0.049547,-0.129737 -1.6569454,-0.0085 C 3.4147901,18.729742 3.4931139,18.737712 3.2654866,18.537853 2.8918585,18.209803 2.954521,17.621067 3.3903337,17.36487 l 0.1373416,-0.08074 1.6826568,-0.0087 1.6826568,-0.0087 0.071553,-0.164438 c 0.2728375,-0.627014 0.8488298,-1.107334 1.5373027,-1.281956 0.2313777,-0.05869 0.7932765,-0.05285 1.0332104,0.01073 0.627454,0.166271 1.177551,0.61212 1.453984,1.17844 l 0.125352,0.256807 4.678967,0.0089 4.678967,0.0089 0.137341,0.08074 c 0.435813,0.256197 0.498475,0.844933 0.124847,1.172983 -0.237888,0.208869 0.182114,0.191928 -4.973218,0.2006 l -4.651989,0.0078 -0.07029,0.154536 c -0.268954,0.591289 -0.74381,1.013332 -1.3865139,1.232305 -0.2446512,0.08335 -0.8641783,0.108831 -1.1364532,0.04673 z m 0.8429476,-1.508806 c 0.4555289,-0.230834 0.5440192,-0.858858 0.1712682,-1.215504 -0.5099713,-0.487938 -1.3497806,-0.08987 -1.2863439,0.609718 0.022735,0.250724 0.1197901,0.411969 0.355515,0.590642 0.170901,0.129537 0.5200779,0.136499 0.7595607,0.01514 z"
     id="path4" />
</svg>
