<?xml version="1.0" encoding="UTF-8" standalone="no"?>
<svg
   fill="#000000"
   version="1.1"
   id="Layer_1"
   viewBox="0 0 32 32"
   xml:space="preserve"
   stroke="#000000"
   stroke-width="0.736"
   sodipodi:docname="global-partner.svg"
   inkscape:version="1.4 (e7c3feb100, 2024-10-09)"
   xmlns:inkscape="http://www.inkscape.org/namespaces/inkscape"
   xmlns:sodipodi="http://sodipodi.sourceforge.net/DTD/sodipodi-0.dtd"
   xmlns="http://www.w3.org/2000/svg"
   xmlns:svg="http://www.w3.org/2000/svg"><defs
     id="defs1" /><sodipodi:namedview
     id="namedview1"
     pagecolor="#ffffff"
     bordercolor="#000000"
     borderopacity="0.25"
     inkscape:showpageshadow="2"
     inkscape:pageopacity="0.0"
     inkscape:pagecheckerboard="0"
     inkscape:deskcolor="#d1d1d1"
     inkscape:zoom="25.40625"
     inkscape:cx="16"
     inkscape:cy="16"
     inkscape:window-width="1920"
     inkscape:window-height="1022"
     inkscape:window-x="0"
     inkscape:window-y="0"
     inkscape:window-maximized="1"
     inkscape:current-layer="SVGRepo_iconCarrier" /><g
     id="SVGRepo_bgCarrier"
     stroke-width="0" /><g
     id="SVGRepo_tracerCarrier"
     stroke-linecap="round"
     stroke-linejoin="round" /><g
     id="SVGRepo_iconCarrier"> <path
   id="global--partner_1_"
   d="M 23.625417,7.8208671 V 8.6734005 L 19.143076,7.2525122 h -3.385152 c -0.704368,0 -1.384107,0.3283828 -1.912382,0.9235769 l -0.58369,0.6551874 H 7.2722616 V 7.8208671 c 0,-0.3141741 -0.1982573,-0.5683549 -0.4433083,-0.5683549 H -1.790932 V 8.3908014 H 6.385645 V 21.461388 h -8.176577 v 1.138287 h 8.6198853 c 0.245051,0 0.4433083,-0.25418 0.4433083,-0.568353 v -1.010409 h 1.1747681 l 2.6450733,4.802599 c 0.330018,0.472051 0.788105,0.71518 1.249884,0.71518 0.334944,0 0.671119,-0.12788 0.962965,-0.391533 l 0.791797,-0.713601 c 0.04679,0.02209 0.08373,0.0663 0.132993,0.08367 0.144075,0.04737 0.289383,0.07262 0.433458,0.07262 0.290613,0 0.577532,-0.09789 0.834895,-0.290492 l 1.024537,-0.757806 c 0.187174,0.08841 0.380506,0.14998 0.581226,0.14998 0.283226,0 0.571376,-0.09315 0.834896,-0.287334 l 1.025768,-0.759384 c 0.187175,0.08841 0.380506,0.149982 0.581226,0.149982 0.283225,0 0.572607,-0.09315 0.83613,-0.287335 0.692054,-0.513099 0.958038,-1.562977 0.730228,-2.488131 h 2.514543 v 1.010407 c 0,0.314174 0.198257,0.568355 0.443307,0.568355 h 8.619886 V 21.461388 H 24.513265 V 8.3892228 h 8.175347 V 7.2525122 h -8.619886 c -0.245053,0 -0.443309,0.2541808 -0.443309,0.5683549 z M 19.937338,22.523894 c -0.375579,0.277862 -0.860757,0.11209 -1.077486,-0.369429 l -1.847117,-4.10163 -0.768404,0.566778 1.933318,4.294237 -0.682201,0.503625 c -0.376813,0.282599 -0.859526,0.113675 -1.077486,-0.367851 l -1.231413,-2.734419 v 0 l -0.307853,-0.683606 -0.767169,0.566777 0.307853,0.682027 v 0 l 1.231411,2.734418 c 0,0.0016 0.0014,0.0016 0.0025,0.0031 l 0.08497,0.187873 -0.683434,0.505204 c -0.179786,0.135774 -0.391589,0.170507 -0.594772,0.101048 -0.203182,-0.06947 -0.371885,-0.235236 -0.477788,-0.465737 l -1.233891,-2.739138 v 0 0 l -0.768404,0.566777 1.231412,2.734419 c 0.0014,0.0016 0.0025,0.0031 0.0025,0.0047 l 0.103444,0.228921 -0.522118,0.47205 c -0.326325,0.295227 -0.773327,0.22892 -1.00976,-0.101049 L 9.0393558,20.12099 C 8.9556302,19.969429 8.8213973,19.879438 8.6773218,19.879438 H 7.2722616 V 9.9679865 H 12.247168 L 9.9247253,12.572947 c -0.1723993,0.19103 -0.2758373,0.468893 -0.2832268,0.759386 -0.00868,0.292071 0.078827,0.577825 0.2413573,0.784646 1.0491642,1.345105 2.7140352,1.461935 3.8715612,0.274704 l 1.235108,-1.267748 h 2.035523 l 3.20044,8.016962 c 0.215495,0.484682 0.0862,1.105135 -0.28815,1.382997 z m 0.778253,-2.64127 -3.02558,-7.584383 c -0.07634,-0.189451 -0.229043,-0.309436 -0.394052,-0.309436 h -2.462824 c -0.100973,0 -0.198259,0.04421 -0.277069,0.124721 l -1.357015,1.392469 c -0.804113,0.824116 -1.959179,0.745177 -2.691869,-0.07579 l 3.922049,-4.40001 c 0.366961,-0.4136362 0.838591,-0.6393991 1.328693,-0.6393991 l 3.278021,-0.017369 4.589472,1.4714076 V 19.882623 Z"
   sodipodi:nodetypes="ccsccscccssccccccsscccscccsccsccscccsscccccccscccccccccccccccccscccccccccccscccccccccccccssccccccc"
   style="stroke-width:1.02621" />  </g></svg>
