<?xml version="1.0" encoding="UTF-8" standalone="no"?>
<!-- Uploaded to: SVG Repo, www.svgrepo.com, Generator: SVG Repo Mixer Tools -->

<svg
   fill="#000000"
   height="800px"
   width="800px"
   version="1.1"
   id="Layer_1"
   viewBox="0 0 330 330"
   xml:space="preserve"
   sodipodi:docname="lock.svg"
   inkscape:version="1.4 (e7c3feb100, 2024-10-09)"
   xmlns:inkscape="http://www.inkscape.org/namespaces/inkscape"
   xmlns:sodipodi="http://sodipodi.sourceforge.net/DTD/sodipodi-0.dtd"
   xmlns="http://www.w3.org/2000/svg"
   xmlns:svg="http://www.w3.org/2000/svg"><defs
   id="defs1" /><sodipodi:namedview
   id="namedview1"
   pagecolor="#ffffff"
   bordercolor="#000000"
   borderopacity="0.25"
   inkscape:showpageshadow="2"
   inkscape:pageopacity="0.0"
   inkscape:pagecheckerboard="0"
   inkscape:deskcolor="#d1d1d1"
   inkscape:zoom="1.01625"
   inkscape:cx="400.492"
   inkscape:cy="400"
   inkscape:window-width="1920"
   inkscape:window-height="1022"
   inkscape:window-x="0"
   inkscape:window-y="0"
   inkscape:window-maximized="1"
   inkscape:current-layer="Layer_1" />
<g
   id="XMLID_509_">
	<path
   id="XMLID_510_"
   d="M65,330h200c8.284,0,15-6.716,15-15V145c0-8.284-6.716-15-15-15h-15V85c0-46.869-38.131-85-85-85   S80,38.131,80,85v45H65c-8.284,0-15,6.716-15,15v170C50,323.284,56.716,330,65,330z M180,234.986V255c0,8.284-6.716,15-15,15   s-15-6.716-15-15v-20.014c-6.068-4.565-10-11.824-10-19.986c0-13.785,11.215-25,25-25s25,11.215,25,25   C190,223.162,186.068,230.421,180,234.986z M110,85c0-30.327,24.673-55,55-55s55,24.673,55,55v45H110V85z" />
</g>
<path
   style="fill:#ffffff;stroke-width:0.98401"
   d="m 152.87272,799.01352 c -11.78674,-1.72569 -22.73918,-9.80828 -27.73601,-20.46838 l -2.62748,-5.60541 V 557.44157 341.94342 l 2.67408,-5.44485 c 3.41359,-6.95059 10.50377,-14.04077 17.4605,-17.4605 5.39939,-2.65419 5.66528,-2.68177 28.8199,-2.98928 l 23.37024,-0.31038 0.005,-63.15826 c 0.004,-57.37711 0.17884,-64.32918 1.90887,-75.95038 C 210.23104,86.058067 281.08828,15.599065 371.8203,2.5412379 386.40656,0.44203621 413.1184,0.42128384 428.00488,2.4975879 509.7206,13.894963 577.90423,74.427763 598.80359,154.13111 c 5.91952,22.57509 6.35344,29.29367 6.3584,98.44904 l 0.005,63.15826 23.37024,0.31038 c 23.15462,0.30751 23.4205,0.33509 28.8199,2.98928 6.95673,3.41973 14.04691,10.50991 17.4605,17.4605 l 2.67408,5.44485 v 215.49815 215.49816 l -2.62748,5.60541 c -5.17252,11.03493 -15.82778,18.67632 -28.62305,20.52697 -7.41127,1.07192 -486.03412,1.01509 -493.36752,-0.0586 z M 413.90714,652.26499 c 7.43404,-2.78142 15.28652,-10.26314 19.27947,-18.36912 l 3.22175,-6.54044 0.31487,-28.48919 0.31486,-28.48919 5.41206,-5.32628 c 16.2784,-16.02037 22.18888,-38.48155 16.11421,-61.23773 -3.79407,-14.21292 -17.04645,-30.13067 -30.59339,-36.74648 -9.75958,-4.7662 -17.28605,-6.54995 -27.63727,-6.54995 -11.26974,0 -17.3258,1.33206 -26.9606,5.93013 -37.78095,18.03044 -46.11391,68.48076 -16.20535,98.11228 l 5.79357,5.7399 0.31516,28.50368 0.31516,28.50367 2.6372,5.62664 c 8.61465,18.37991 28.58313,26.47651 47.6783,19.33208 z M 533.33333,254.04794 c 0,-52.42792 -0.24146,-63.22832 -1.5895,-71.09471 -8.17277,-47.69209 -42.9113,-88.085271 -89.3329,-103.874276 -24.68755,-8.396778 -57.3308,-8.667497 -82.59981,-0.68502 -47.23268,14.920797 -83.24107,56.043776 -91.55495,104.559296 -1.34804,7.86639 -1.5895,18.66679 -1.5895,71.09471 v 61.81922 H 400 533.33333 Z"
   id="path1"
   transform="scale(0.4125)" /></svg>
