<?xml version="1.0" encoding="UTF-8" standalone="no"?>
<svg
   fill="none"
   viewBox="0 0 24 24"
   stroke-width="1.5"
   stroke="currentColor"
   class="size-6"
   version="1.1"
   id="svg1"
   sodipodi:docname="logout.svg"
   inkscape:version="1.4 (e7c3feb100, 2024-10-09)"
   xmlns:inkscape="http://www.inkscape.org/namespaces/inkscape"
   xmlns:sodipodi="http://sodipodi.sourceforge.net/DTD/sodipodi-0.dtd"
   xmlns="http://www.w3.org/2000/svg"
   xmlns:svg="http://www.w3.org/2000/svg">
  <sodipodi:namedview
     id="namedview1"
     pagecolor="#ffffff"
     bordercolor="#000000"
     borderopacity="0.25"
     inkscape:showpageshadow="2"
     inkscape:pageopacity="0.0"
     inkscape:pagecheckerboard="0"
     inkscape:deskcolor="#d1d1d1"
     inkscape:zoom="33.875"
     inkscape:cx="12"
     inkscape:cy="12.01476"
     inkscape:window-width="1239"
     inkscape:window-height="1045"
     inkscape:window-x="677"
     inkscape:window-y="18"
     inkscape:window-maximized="0"
     inkscape:current-layer="svg1" />
  <g
     clip-path="url(#clip0_1199_138)"
     id="g1">
    <path
       fill-rule="evenodd"
       clip-rule="evenodd"
       d="M2.11256 0.75C2.1001 0.75 2.08765 0.75031 2.07522 0.75093C1.49768 0.779719 0.955076 1.03617 0.566199 1.46413C0.181579 1.88741 -0.021668 2.44436 -0.000443399 3.01539V20.9848C-0.0213439 21.5557 0.181993 22.1124 0.566503 22.5356C0.955205 22.9634 1.49744 23.2199 2.0747 23.249C2.08731 23.2497 2.09993 23.25 2.11256 23.25H14.3856C14.398 23.25 14.4105 23.2497 14.4229 23.2491C15.0004 23.2203 15.543 22.9639 15.9321 22.5361C16.3169 22.1129 16.5204 21.556 16.4996 20.9849V16.5C16.4996 16.0858 16.1638 15.75 15.7496 15.75C15.3353 15.75 14.9996 16.0858 14.9996 16.5V21C14.9996 21.0045 14.9996 21.0089 14.9997 21.0134C14.9997 21.0164 14.9998 21.0194 14.9999 21.0225L15.0003 21.0338C15.0085 21.2153 14.9445 21.3926 14.8223 21.527C14.7035 21.6576 14.5392 21.7373 14.3635 21.75H2.13496C1.95943 21.7372 1.79527 21.6574 1.67665 21.5268C1.55454 21.3925 1.4906 21.2152 1.49879 21.0338C1.4993 21.0226 1.49956 21.0113 1.49956 21V3C1.49956 2.98854 1.49929 2.97709 1.49877 2.96564C1.49046 2.78437 1.55431 2.60719 1.67634 2.47288C1.79495 2.34235 1.95913 2.26267 2.13465 2.25H14.3635C14.5392 2.26268 14.7035 2.34241 14.8223 2.47302C14.9445 2.60741 15.0085 2.78473 15.0003 2.96619C14.9998 2.97745 14.9996 2.98873 14.9996 3V7.5C14.9996 7.91421 15.3353 8.25 15.7496 8.25C16.1638 8.25 16.4996 7.91421 16.4996 7.5V3.01514C16.5204 2.444 16.3169 1.88707 15.9321 1.46387C15.543 1.03605 15.0004 0.779717 14.4229 0.75093C14.4105 0.75031 14.398 0.75 14.3856 0.75H2.11256ZM18.9697 7.72367C19.2626 7.43077 19.7374 7.43077 20.0303 7.72367L23.7803 11.4737C23.8522 11.5456 23.9065 11.6285 23.9431 11.7169C23.9798 11.8053 24 11.9023 24 12.004C24 12.1959 23.9268 12.3879 23.7803 12.5343L20.0303 16.2843C19.7374 16.5772 19.2626 16.5772 18.9697 16.2843C18.6768 15.9914 18.6768 15.5166 18.9697 15.2237L21.4393 12.754H7.5C7.08579 12.754 6.75 12.4182 6.75 12.004C6.75 11.5898 7.08579 11.254 7.5 11.254H21.4393L18.9697 8.78433C18.6768 8.49143 18.6768 8.01656 18.9697 7.72367Z"
       fill="currentColor"
       id="path1" />
  </g>
  <defs
     id="defs1">
    <clipPath
       id="clip0_1199_138">
      <rect
         width="24"
         height="24"
         fill="white"
         id="rect1" />
    </clipPath>
  </defs>
  <path
     style="fill:#e6e6e6;stroke-width:0.0442804"
     d="M 1.8797988,23.967762 C 1.2565948,23.901948 0.66368605,23.626478 0.16576902,23.17141 L 0,23.019906 V 12 0.98009402 L 0.16576902,0.82859046 C 0.67822565,0.36023398 1.2482641,0.10069153 1.9188192,0.03041465 c 0.3816131,-0.03999459 12.2825938,-0.03999459 12.6642068,0 1.187503,0.12445516 2.163423,0.91960082 2.518496,2.05198365 0.132174,0.4215231 0.138359,0.561008 0.137818,3.1079297 -5.63e-4,2.6483303 1.41e-4,2.6365296 -0.178356,2.9903952 -0.111425,0.2208983 -0.388427,0.5053252 -0.606477,0.6227333 -0.421179,0.2267829 -0.98968,0.2267829 -1.410859,0 C 14.836061,8.6916821 14.555076,8.403618 14.440474,8.1850866 14.259583,7.8401497 14.25938,7.8369181 14.258815,5.2915129 L 14.258303,2.9815498 H 8.2509225 2.2435424 V 12 21.01845 h 6.0073801 6.0073805 l 5.12e-4,-2.309963 c 5.64e-4,-2.542752 0.0011,-2.551918 0.18,-2.887502 0.125523,-0.235505 0.28376,-0.410936 0.502279,-0.556857 0.724509,-0.483809 1.730336,-0.214317 2.127078,0.569909 0.170306,0.336637 0.170608,0.341893 0.171168,2.975635 3.34e-4,1.571253 -0.01062,2.491162 -0.03144,2.640849 -0.132517,0.952759 -0.748748,1.806549 -1.606428,2.225706 -0.349516,0.170813 -0.63569,0.253244 -1.01845,0.293358 -0.342826,0.03593 -12.3620744,0.03421 -12.7032272,-0.0018 z"
     id="path2" />
  <path
     style="fill:#b3b3b3;stroke-width:0.0442804"
     d="m 19.15159,17.193865 c -0.305094,-0.07395 -0.584642,-0.25351 -0.798665,-0.51301 -0.156078,-0.18924 -0.250812,-0.39576 -0.306255,-0.667634 -0.06222,-0.30511 -0.0233,-0.584354 0.125135,-0.897774 0.09491,-0.200394 0.165694,-0.282044 0.781773,-0.901722 0.37258,-0.374757 0.677418,-0.69073 0.677418,-0.702163 0,-0.01143 -2.759778,-0.02098 -6.132841,-0.02122 -6.7410263,-4.8e-4 -6.3065204,0.01125 -6.68665,-0.180493 C 6.7018109,13.254515 6.5543327,13.142557 6.4468927,13.03305 5.6249194,12.195263 6.0595349,10.797325 7.2177122,10.553715 c 0.1780777,-0.03746 1.0503092,-0.04354 6.3099628,-0.04398 3.356827,-2.82e-4 6.103321,-0.01079 6.103321,-0.02336 0,-0.01257 -0.292945,-0.314779 -0.650989,-0.6715865 C 18.621963,9.4579855 18.290893,9.1062731 18.244296,9.0332103 18.050891,8.7299546 17.974931,8.3223295 18.047623,7.9777919 c 0.131187,-0.6217836 0.630924,-1.0948446 1.25902,-1.191812 0.1837,-0.02836 0.260321,-0.026377 0.446326,0.011555 0.475525,0.096973 0.385715,0.020942 2.409393,2.0397459 L 24,10.670494 v 1.344716 1.344717 l -1.808118,1.801463 c -1.955807,1.948609 -1.939587,1.934618 -2.356991,2.033008 -0.230255,0.05427 -0.457906,0.0541 -0.683301,-5.33e-4 z"
     id="path3" />
  <path
     style="fill:#b3b3b3;stroke-width:0.0442804"
     d="M 3.8228782,23.941179 1.697417,23.924987 1.4424039,23.845495 C 0.9576707,23.694395 0.56775005,23.474311 0.19926199,23.143824 L 0.0295203,22.991588 V 12.000601 1.0096143 L 0.19926199,0.85401975 C 0.59897083,0.48762462 1.1018753,0.22855916 1.6383764,0.11267645 1.8938248,0.05750033 2.0928246,0.05471329 6.804428,0.04032461 c 2.695203,-0.0082308 5.591144,-0.0024014 6.435424,0.0129543 1.416538,0.02576387 1.552326,0.03269028 1.758738,0.08971181 0.506487,0.13991749 0.907965,0.36312134 1.268572,0.70526867 0.305497,0.28985881 0.531255,0.60603151 0.681399,0.95429361 0.176267,0.408855 0.20124,0.5429978 0.235974,1.2675577 0.03937,0.8213243 0.01482,4.5213163 -0.03142,4.7353228 C 17.084796,8.1216024 16.920743,8.3751782 16.616494,8.63488 16.252817,8.9453089 15.705267,9.0181559 15.188192,8.8249033 15.047012,8.7721385 14.962459,8.7101804 14.771513,8.519574 14.51459,8.2631082 14.401641,8.0774362 14.346638,7.8211427 14.322784,7.7099929 14.307452,6.9353588 14.296862,5.3062731 l -0.0153,-2.3542436 H 8.2477898 2.2140221 V 12 21.04797 h 6.0337677 6.0337682 l 0.0153,-2.354243 c 0.01061,-1.632147 0.02591,-2.404043 0.04988,-2.516605 0.157585,-0.740007 0.961206,-1.252142 1.694498,-1.079877 0.561632,0.131938 1.005438,0.573587 1.114815,1.109397 0.03074,0.150575 0.03906,0.725696 0.03867,2.671587 -5.6e-4,2.763036 0.0026,2.712834 -0.206031,3.227259 -0.199849,0.492666 -0.592087,0.996696 -1.005098,1.291558 -0.240531,0.171725 -0.683876,0.381658 -0.972522,0.46051 -0.229275,0.06263 -0.299868,0.06512 -2.420664,0.08521 -2.446465,0.02317 -5.5920892,0.02261 -8.7675278,-0.0016 z"
     id="path4" />
</svg>
