<?xml version="1.0" encoding="UTF-8" standalone="no"?>
<!-- Uploaded to: SVG Repo, www.svgrepo.com, Generator: SVG Repo Mixer Tools -->

<svg
   width="800px"
   height="800px"
   viewBox="0 0 24 24"
   fill="none"
   version="1.1"
   id="svg4"
   sodipodi:docname="profile.svg"
   inkscape:version="1.4 (e7c3feb100, 2024-10-09)"
   xmlns:inkscape="http://www.inkscape.org/namespaces/inkscape"
   xmlns:sodipodi="http://sodipodi.sourceforge.net/DTD/sodipodi-0.dtd"
   xmlns="http://www.w3.org/2000/svg"
   xmlns:svg="http://www.w3.org/2000/svg">
  <defs
     id="defs4" />
  <sodipodi:namedview
     id="namedview4"
     pagecolor="#ffffff"
     bordercolor="#000000"
     borderopacity="0.25"
     inkscape:showpageshadow="2"
     inkscape:pageopacity="0.0"
     inkscape:pagecheckerboard="0"
     inkscape:deskcolor="#d1d1d1"
     inkscape:zoom="1.01625"
     inkscape:cx="399.508"
     inkscape:cy="400"
     inkscape:window-width="1920"
     inkscape:window-height="1022"
     inkscape:window-x="0"
     inkscape:window-y="0"
     inkscape:window-maximized="1"
     inkscape:current-layer="svg4" />
  <path
     d="M12 15C14.8995 15 17.25 12.6495 17.25 9.75C17.25 6.85051 14.8995 4.5 12 4.5C9.10051 4.5 6.75 6.85051 6.75 9.75C6.75 12.6495 9.10051 15 12 15Z"
     stroke="#71717A"
     stroke-width="1.5"
     stroke-linecap="round"
     stroke-linejoin="round"
     id="path1" />
  <path
     d="M12 23.25C18.2132 23.25 23.25 18.2132 23.25 12C23.25 5.7868 18.2132 0.75 12 0.75C5.7868 0.75 0.75 5.7868 0.75 12C0.75 18.2132 5.7868 23.25 12 23.25Z"
     stroke="#71717A"
     stroke-width="1.5"
     stroke-linecap="round"
     stroke-linejoin="round"
     id="path2" />
  <path
     d="M5.08691 20.876C5.9927 19.9645 7.06978 19.2412 8.25619 18.7476C9.44261 18.254 10.7149 17.9999 11.9999 17.9999C13.2849 17.9999 14.5572 18.254 15.7436 18.7476C16.9207 19.2373 17.9902 19.9532 18.8915 20.8546"
     stroke="#71717A"
     stroke-width="1.5"
     stroke-linecap="round"
     stroke-linejoin="round"
     id="path4" />
  <path
     style="fill:#b3b3b3;stroke-width:0.98401"
     d="M 381.30381,798.94695 C 293.57028,795.1134 207.74939,761.16505 141.20541,703.97073 60.360964,634.4852 11.592526,540.07152 1.9822023,434.44034 c -1.3826825,-15.19765 -1.3826825,-53.68303 0,-68.88068 C 8.055137,298.80944 29.222738,237.67004 65.640615,181.69201 95.118271,136.38182 136.38182,95.118271 181.69201,65.640615 237.46443,29.3565 298.8617,8.0963213 365.55966,1.9723198 372.05412,1.376018 387.55228,0.88813471 400,0.88813471 c 24.18874,0 38.32735,0.98592819 59.5326,4.15138939 42.88854,6.4022849 80.71477,18.5430709 120.5412,38.6891569 40.01086,20.23938 72.07155,43.653887 104.01479,75.963919 65.88681,66.64333 105.48329,152.03881 113.91951,245.68375 1.35215,15.00924 1.34722,54.32012 -0.009,69.2473 -8.09126,89.07751 -45.11727,172.46271 -105.00157,236.47106 -22.94716,24.52745 -45.88359,44.07195 -72.08764,61.42704 -32.06375,21.23601 -59.3816,34.57175 -94.95695,46.35509 -35.43226,11.73594 -69.97909,18.3893 -102.12504,19.66821 -7.15226,0.28455 -15.88234,0.65585 -19.40018,0.8251 -3.51783,0.16925 -13.92373,-0.0212 -23.12423,-0.4232 z m 53.13653,-50.21277 c 41.88975,-4.01434 84.61035,-16.32892 122.4495,-35.2971 12.51234,-6.27225 33.0267,-18.12226 33.94504,-19.60817 0.29787,-0.48197 -3.56246,-3.97455 -8.57853,-7.7613 -28.90361,-21.82006 -64.05413,-39.67775 -96.48743,-49.01898 -28.67169,-8.25783 -47.76475,-11.19194 -77.57252,-11.92091 -23.78853,-0.58176 -39.23217,0.39774 -58.77203,3.72756 -47.53153,8.09995 -92.51222,27.64305 -131.68072,57.21233 -5.01607,3.78675 -8.8764,7.27933 -8.57853,7.7613 0.91834,1.48591 21.4327,13.33592 33.94504,19.60817 43.80301,21.95777 86.86791,33.1404 141.63769,36.77894 8.30203,0.55153 37.58699,-0.32175 49.69249,-1.48184 z M 203.69004,636.05163 c 46.15798,-31.14669 96.53463,-50.1442 153.99754,-58.07392 18.21614,-2.51378 66.4087,-2.51378 84.62484,0 67.53451,9.31958 125.93743,34.13895 176.93017,75.18967 l 12.60053,10.14381 13.34636,-13.08241 c 58.46695,-57.31064 93.07377,-128.37197 103.21831,-211.94756 2.27232,-18.72046 2.27232,-57.84198 0,-76.56244 C 741.12532,301.72231 722.45013,251.13581 689.70448,202.70603 668.04273,170.66896 635.06207,136.84814 604.19119,115.01433 532.35762,64.209149 447.8264,42.223253 361.13161,51.796469 279.85517,60.771368 206.5204,96.664315 149.05788,155.59377 93.803008,212.25922 61.367885,280.82659 51.597477,361.62362 c -2.279546,18.85086 -2.279546,57.9019 0,76.75276 6.371635,52.69065 21.385689,97.40106 47.417726,141.20542 15.176597,25.53782 32.982247,48.08327 55.817557,70.67603 l 13.25221,13.11145 12.63649,-10.17285 c 6.95006,-5.59507 17.28592,-13.31023 22.96858,-17.1448 z"
     id="path3"
     transform="scale(0.03)" />
  <path
     style="fill:#b3b3b3;stroke-width:0.98401"
     d="m 383.27183,523.87468 c -49.0445,-5.13187 -90.31096,-24.41575 -124.00136,-57.94602 -58.8108,-58.53127 -75.0168,-146.53214 -41.01689,-222.72755 27.73798,-62.16214 86.44144,-106.0423 154.87942,-115.77059 13.4276,-1.9087 40.12595,-1.88307 53.99862,0.0518 44.79697,6.2481 84.86208,26.73777 116.56461,59.61222 75.28664,78.06971 73.96522,202.26783 -2.96669,278.83409 -30.39816,30.25367 -66.90535,48.91313 -109.74695,56.09358 -9.00434,1.50916 -39.62813,2.69818 -47.71076,1.85244 z m 47.23248,-51.53484 c 45.78737,-9.74726 83.28408,-38.65136 104.05727,-80.21192 10.39729,-20.80166 14.44601,-37.20397 15.21375,-61.63448 0.79245,-25.21661 -2.30654,-43.074 -11.0734,-63.8085 -30.84305,-72.94695 -111.64481,-109.19585 -187.35168,-84.04881 -46.91648,15.58392 -85.02213,56.71446 -96.99513,104.69474 -3.8867,15.57545 -4.72282,24.3128 -4.13045,43.16257 0.80289,25.54886 4.90462,41.4125 16.58683,64.15045 21.74763,42.32897 62.2034,71.25244 110.71216,79.15261 12.64583,2.0595 39.99591,1.30753 52.98065,-1.45666 z"
     id="path5"
     transform="scale(0.03)" />
</svg>
