<?xml version="1.0" encoding="UTF-8" standalone="no"?>
<svg
   version="1.0"
   width="253.000000pt"
   height="137.000000pt"
   viewBox="0 0 253.000000 137.000000"
   preserveAspectRatio="xMidYMid meet"
   id="svg60"
   sodipodi:docname="site-logo.svg"
   inkscape:version="1.4 (e7c3feb100, 2024-10-09)"
   xmlns:inkscape="http://www.inkscape.org/namespaces/inkscape"
   xmlns:sodipodi="http://sodipodi.sourceforge.net/DTD/sodipodi-0.dtd"
   xmlns="http://www.w3.org/2000/svg"
   xmlns:svg="http://www.w3.org/2000/svg">
  <defs
     id="defs60" />
  <sodipodi:namedview
     id="namedview60"
     pagecolor="#ffffff"
     bordercolor="#000000"
     borderopacity="0.25"
     inkscape:showpageshadow="2"
     inkscape:pageopacity="0.0"
     inkscape:pagecheckerboard="0"
     inkscape:deskcolor="#d1d1d1"
     inkscape:document-units="pt"
     inkscape:zoom="3.1432703"
     inkscape:cx="76.512669"
     inkscape:cy="110.07644"
     inkscape:window-width="1920"
     inkscape:window-height="1021"
     inkscape:window-x="1920"
     inkscape:window-y="0"
     inkscape:window-maximized="1"
     inkscape:current-layer="svg60" />
  <g
     transform="translate(0.000000,137.000000) scale(0.100000,-0.100000)"
     fill="#000000"
     stroke="none"
     id="g60">
    <path
       d="M1113 1281 c-190 -52 -361 -197 -407 -348 -6 -19 -4 -23 16 -23 17 0 24 6 25 21 5 62 126 201 225 257 201 115 397 103 588 -34 46 -33 120 -113 120 -130 0 -5 -24 16 -54 45 -29 29 -55 48 -57 42 -2 -6 -28 6 -59 28 -152 108 -368 109 -524 3 -130 -88 -235 -221 -189 -239 11 -4 22 2 32 18 36 56 75 86 123 93 68 10 122 -8 178 -60 l48 -45 -3 -103 c-4 -122 -13 -141 -85 -180 -91 -49 -209 -31 -255 40 -19 29 -22 30 -75 26 -30 -3 -57 -6 -59 -8 -2 -2 11 -33 29 -70 77 -152 266 -285 443 -314 211 -33 484 116 587 324 l31 61 -63 5 c-35 3 -65 2 -66 -2 -12 -28 -58 -68 -88 -78 -57 -19 -145 -8 -193 23 -65 43 -81 78 -81 173 0 73 3 85 29 120 53 75 126 103 217 84 50 -11 58 -16 87 -61 25 -38 37 -48 52 -44 11 2 37 5 58 5 20 0 37 5 37 11 0 28 -61 129 -108 181 -146 157 -372 229 -559 179z m248 -117 c97 -29 100 -34 36 -54 -31 -10 -79 -34 -107 -55 l-51 -38 -27 26 c-32 30 -95 62 -141 72 -28 6 -31 9 -20 21 40 39 216 56 310 28z m-225 -109 c48 -28 75 -60 67 -81 -4 -11 -14 -7 -42 15 -48 38 -95 61 -123 61 -13 0 -33 3 -46 6 -19 5 -20 9 -10 21 18 22 99 10 154 -22z m382 17 c23 -18 23 -18 -31 -19 -75 -2 -141 -35 -182 -92 -38 -52 -68 -144 -69 -213 -1 -32 -4 -44 -11 -37 -5 6 -10 51 -10 102 0 75 4 99 22 132 60 112 212 180 281 127z m-328 -432 c-13 -24 -65 -67 -90 -75 -11 -4 -18 -10 -16 -14 3 -4 -9 -8 -27 -8 -18 -1 -45 -4 -62 -7 -21 -5 -37 -1 -52 11 -22 18 -22 18 37 19 67 1 158 40 188 79 20 26 37 23 22 -5z m520 22 c0 -12 -57 -100 -83 -127 -42 -44 -155 -122 -201 -140 -29 -11 -42 -21 -35 -25 7 -5 -11 -13 -40 -19 -62 -13 -91 -14 -91 -2 0 4 -31 11 -69 13 -75 6 -185 53 -238 103 -15 14 -31 25 -35 25 -4 0 -13 10 -19 23 -10 19 -10 20 2 11 8 -6 38 -29 66 -52 134 -103 315 -119 472 -41 66 33 181 135 225 198 27 38 46 52 46 33z m-430 -97 c20 -24 87 -57 145 -71 l50 -12 -58 -27 c-91 -42 -167 -52 -257 -31 -41 9 -91 26 -110 38 l-35 22 42 7 c52 10 110 39 148 76 31 30 49 30 75 -2z m229 -5 c42 0 43 -1 25 -15 -21 -16 -99 -21 -89 -6 3 5 -10 14 -29 21 -19 6 -39 17 -45 24 -7 9 6 7 42 -5 28 -10 72 -18 96 -19z"
       id="path1" />
    <path
       d="M570 1055 c-11 -13 -11 -19 3 -32 21 -21 49 -9 45 19 -4 28 -30 35 -48 13z"
       id="path2" />
    <path
       d="M1875 1060 c-9 -15 4 -50 19 -50 20 0 37 25 30 44 -7 18 -39 22 -49 6z"
       id="path3" />
    <path
       d="M1830 970 l0 -40 103 2 102 2 -92 3 -93 4 0 34 c0 19 -4 35 -10 35 -5 0 -10 -18 -10 -40z"
       id="path4" />
    <path
       d="M640 980 c0 -11 5 -20 10 -20 6 0 10 9 10 20 0 11 -4 20 -10 20 -5 0 -10 -9 -10 -20z"
       id="path5" />
    <path
       d="M157 934 c-21 -21 57 -35 79 -15 5 5 20 11 34 14 14 2 -5 5 -41 6 -36 0 -69 -2 -72 -5z"
       id="path6" />
    <path
       d="M418 933 c17 -2 47 -2 65 0 17 2 3 4 -33 4 -36 0 -50 -2 -32 -4z"
       id="path7" />
    <path
       d="M548 933 c18 -2 45 -2 60 0 15 2 0 4 -33 4 -33 0 -45 -2 -27 -4z"
       id="path8" />
    <path
       d="M952 924 c-29 -20 -30 -76 -2 -104 60 -60 153 26 100 93 -25 31 -63 36 -98 11z m32 -9 c-10 -8 -23 -14 -29 -14 -5 0 -1 6 9 14 11 8 24 15 30 15 5 0 1 -7 -10 -15z"
       id="path9" />
    <path
       d="M1431 914 c-41 -52 -11 -114 55 -114 38 0 64 29 64 70 0 38 -20 60 -61 66 -31 5 -39 2 -58 -22z m49 7 c0 -5 -10 -11 -22 -14 -22 -6 -22 -6 -4 8 23 17 26 18 26 6z"
       id="path10" />
    <path
       d="M2108 933 c6 -2 18 -2 25 0 6 3 1 5 -13 5 -14 0 -19 -2 -12 -5z"
       id="path11" />
    <path
       d="M2181 935 c8 -7 78 -9 85 -2 4 4 -14 7 -41 7 -27 0 -46 -2 -44 -5z"
       id="path12" />
    <path
       d="M494 883 c-82 -3 -93 -6 -115 -29 -33 -35 -33 -99 0 -125 21 -17 41 -19 205 -19 162 0 184 2 213 20 59 35 52 114 -12 144 -33 16 -61 17 -291 9z m287 -42 c20 -16 21 -21 11 -34 -12 -14 -15 -14 -33 4 -17 17 -34 19 -155 19 -74 0 -144 -5 -155 -10 -23 -13 -25 -33 -4 -50 12 -10 16 -9 21 4 5 14 26 16 143 16 91 -1 141 -5 152 -13 13 -10 -4 -11 -84 -9 -65 3 -97 0 -93 -6 9 -14 -119 -20 -158 -7 -25 8 -32 16 -34 42 -5 56 18 63 204 63 144 0 164 -2 185 -19z m-43 -88 c-10 -2 -28 -2 -40 0 -13 2 -5 4 17 4 22 1 32 -1 23 -4z"
       id="path13" />
    <path
       d="M1726 880 c-44 -8 -75 -42 -76 -82 0 -78 27 -88 248 -88 165 0 180 1 200 20 12 11 25 32 28 45 7 30 -12 82 -35 94 -22 12 -318 21 -365 11z m339 -45 c26 -25 32 -45 15 -45 -5 0 -10 -7 -10 -15 0 -25 -33 -33 -105 -27 l-70 7 50 6 c39 4 29 6 -45 7 -61 0 -88 -2 -75 -8 14 -6 2 -9 -42 -9 -50 -1 -67 3 -83 19 -25 25 -25 42 -2 62 28 25 40 26 195 27 144 1 149 0 172 -24z"
       id="path14" />
    <path
       d="M1743 820 c-13 -5 -23 -16 -23 -25 0 -19 32 -33 38 -17 5 17 259 17 264 0 6 -17 28 0 28 22 0 10 -7 21 -16 24 -24 9 -266 6 -291 -4z"
       id="path15" />
    <path
       d="M2160 860 c0 -13 200 -13 220 0 10 7 -23 10 -102 10 -72 0 -118 -4 -118 -10z"
       id="path16" />
    <path
       d="M2490 866 c0 -2 7 -6 15 -10 8 -3 15 -1 15 4 0 6 -7 10 -15 10 -8 0 -15 -2 -15 -4z"
       id="path17" />
    <path
       d="M2412 803 c-23 -2 -40 -8 -37 -14 7 -10 75 -12 99 -3 18 7 12 25 -7 22 -7 -1 -31 -3 -55 -5z"
       id="path18" />
    <path
       d="M30 790 c36 -12 78 -12 85 0 4 6 -16 10 -52 9 -44 -1 -52 -3 -33 -9z"
       id="path19" />
    <path
       d="M170 790 c0 -5 5 -10 10 -10 6 0 10 5 10 10 0 6 -4 10 -10 10 -5 0 -10 -4 -10 -10z"
       id="path20" />
    <path
       d="M230 790 c0 -5 16 -10 35 -10 19 0 35 5 35 10 0 6 -16 10 -35 10 -19 0 -35 -4 -35 -10z"
       id="path21" />
    <path
       d="M2180 791 c0 -4 11 -6 25 -3 14 2 25 6 25 8 0 2 -11 4 -25 4 -14 0 -25 -4 -25 -9z"
       id="path22" />
    <path
       d="M2285 790 c3 -5 13 -10 21 -10 8 0 14 5 14 10 0 6 -9 10 -21 10 -11 0 -17 -4 -14 -10z"
       id="path23" />
    <path
       d="M909 741 c-16 -16 -29 -36 -29 -44 0 -37 145 -48 213 -16 33 15 34 33 2 64 -21 22 -33 25 -90 25 -60 0 -69 -3 -96 -29z"
       id="path24" />
    <path
       d="M1380 738 l-32 -31 39 -24 c45 -27 143 -32 199 -8 30 12 34 17 25 34 -24 44 -60 61 -132 61 -62 0 -70 -2 -99 -32z"
       id="path25" />
    <path
       d="M108 703 c7 -3 16 -2 19 1 4 3 -2 6 -13 5 -11 0 -14 -3 -6 -6z"
       id="path26" />
    <path
       d="M220 700 c0 -5 20 -10 45 -10 25 0 45 5 45 10 0 6 -20 10 -45 10 -25 0 -45 -4 -45 -10z"
       id="path27" />
    <path
       d="M2135 700 c-4 -6 28 -10 89 -10 57 0 96 4 96 10 0 6 -36 10 -89 10 -50 0 -93 -4 -96 -10z"
       id="path28" />
    <path
       d="M580 560 c0 -83 -4 -117 -15 -134 -14 -21 -14 -25 0 -39 21 -21 21 -139 0 -157 -11 -9 -12 -17 -4 -31 12 -23 32 -24 49 -4 10 12 10 18 0 30 -8 10 -11 45 -10 107 5 175 0 338 -10 338 -6 0 -10 -43 -10 -110z"
       id="path29" />
    <path
       d="M638 483 c-3 -177 1 -220 20 -198 10 13 3 385 -8 385 -5 0 -10 -84 -12 -187z"
       id="path30" />
    <path
       d="M1830 503 c0 -93 -3 -178 -6 -190 -4 -16 -1 -25 11 -29 22 -9 39 10 31 33 -4 10 -7 82 -6 159 1 143 -5 194 -21 194 -5 0 -9 -75 -9 -167z"
       id="path31" />
    <path
       d="M1900 552 c0 -72 -4 -122 -11 -129 -8 -8 -8 -17 0 -31 15 -28 14 -138 -1 -162 -10 -16 -10 -23 3 -35 9 -9 23 -13 32 -9 19 7 23 39 7 49 -12 8 -13 145 -1 145 17 0 21 33 6 50 -11 13 -15 42 -15 128 0 68 -4 112 -10 112 -6 0 -10 -46 -10 -118z"
       id="path32" />
    <path
       d="M480 651 c19 -5 40 -10 47 -12 6 -2 13 1 15 6 1 6 -19 11 -47 12 -45 1 -47 1 -15 -6z"
       id="path33" />
    <path
       d="M1957 654 c-10 -11 3 -24 23 -24 10 0 20 7 24 15 4 11 -1 15 -18 15 -12 0 -26 -3 -29 -6z"
       id="path34" />
    <path
       d="M50 640 c0 -11 80 -11 125 0 22 6 9 8 -47 9 -46 1 -78 -3 -78 -9z"
       id="path35" />
    <path
       d="M2380 646 c0 -2 7 -6 15 -10 8 -3 15 -1 15 4 0 6 -7 10 -15 10 -8 0 -15 -2 -15 -4z"
       id="path36" />
    <path
       d="M165 580 c-4 -6 10 -10 35 -10 25 0 39 4 35 10 -3 6 -19 10 -35 10 -16 0 -32 -4 -35 -10z"
       id="path37" />
    <path
       d="M330 580 c0 -13 50 -13 70 0 11 7 4 10 -27 10 -24 0 -43 -4 -43 -10z"
       id="path38" />
    <path
       d="M480 580 c0 -5 11 -10 25 -10 14 0 25 5 25 10 0 6 -11 10 -25 10 -14 0 -25 -4 -25 -10z"
       id="path39" />
    <path
       d="M1980 581 c0 -5 38 -10 85 -10 49 0 85 3 85 9 0 6 -36 10 -85 10 -47 0 -85 -4 -85 -9z"
       id="path40" />
    <path
       d="M2200 580 c0 -5 11 -10 25 -10 14 0 25 5 25 10 0 6 -11 10 -25 10 -14 0 -25 -4 -25 -10z"
       id="path41" />
    <path
       d="M1778 567 c-5 -10 -8 -111 -8 -223 0 -166 -3 -209 -15 -228 -17 -25 -12 -51 11 -60 36 -14 71 37 40 59 -13 10 -16 44 -18 241 -2 126 -6 221 -10 211z"
       id="path42" />
    <path
       d="M700 349 c0 -180 -2 -215 -16 -230 -31 -34 6 -80 47 -59 23 13 25 43 4 60 -12 10 -15 48 -15 221 0 128 -4 210 -10 214 -7 4 -10 -67 -10 -206z"
       id="path43" />
    <path
       d="M255 520 c-8 -12 161 -12 190 0 13 6 -16 9 -82 9 -58 1 -104 -3 -108 -9z"
       id="path44" />
    <path
       d="M1966 522 c-3 -5 55 -10 129 -11 90 -2 135 1 135 8 0 13 -256 15 -264 3z"
       id="path45" />
    <path
       d="M1706 475 c-3 -9 -6 -77 -6 -151 0 -127 1 -134 20 -134 20 0 26 11 14 23 -4 3 -7 65 -9 137 -2 128 -6 157 -19 125z"
       id="path46" />
    <path
       d="M770 354 c0 -77 -4 -134 -10 -140 -8 -8 -6 -15 4 -23 10 -9 16 -9 21 -1 11 17 5 274 -6 285 -5 5 -9 -39 -9 -121z"
       id="path47" />
    <path
       d="M1638 414 c-5 -4 -8 -45 -8 -91 0 -49 -5 -91 -12 -103 -10 -15 -10 -25 -2 -38 25 -39 68 -2 46 40 -6 13 -13 63 -14 111 -2 49 -6 85 -10 81z"
       id="path48" />
    <path
       d="M840 326 c0 -48 -5 -95 -12 -105 -16 -26 -3 -51 26 -51 29 0 40 24 23 53 -7 13 -12 56 -12 101 0 54 -4 80 -12 83 -10 4 -13 -17 -13 -81z"
       id="path49" />
    <path
       d="M1558 355 c-9 -14 -14 -273 -5 -281 10 -11 38 17 29 30 -4 6 -9 67 -12 136 -3 69 -8 120 -12 115z"
       id="path50" />
    <path
       d="M920 231 c0 -73 -4 -122 -10 -126 -13 -8 6 -35 25 -35 16 0 27 27 15 35 -6 4 -10 60 -10 126 0 73 -4 119 -10 119 -6 0 -10 -46 -10 -119z"
       id="path51" />
    <path
       d="M970 273 c0 -72 12 -153 22 -153 14 0 5 193 -9 198 -9 2 -13 -10 -13 -45z"
       id="path52" />
    <path
       d="M1496 311 c-7 -11 0 -170 8 -178 3 -4 6 37 6 90 0 93 -2 107 -14 88z"
       id="path53" />
    <path
       d="M1030 221 c0 -44 5 -83 10 -86 6 -4 10 23 10 74 0 44 -4 83 -10 86 -6 4 -10 -23 -10 -74z"
       id="path54" />
    <path
       d="M1080 173 c0 -67 -4 -114 -10 -118 -8 -5 -7 -11 1 -21 27 -33 34 -8 30 112 -4 154 -21 176 -21 27z"
       id="path55" />
    <path
       d="M1391 160 c2 -118 9 -144 32 -121 9 9 8 16 -1 31 -7 12 -12 57 -12 115 0 59 -4 95 -10 95 -7 0 -10 -42 -9 -120z"
       id="path56" />
    <path
       d="M1150 193 c0 -38 -3 -79 -7 -92 -5 -19 -2 -22 13 -19 10 2 19 9 18 16 -1 6 -2 46 -2 87 -2 94 -22 101 -22 8z"
       id="path57" />
    <path
       d="M1320 196 c0 -35 -3 -71 -6 -80 -4 -10 0 -18 11 -22 21 -8 40 10 29 28 -5 7 -7 22 -5 32 5 30 -9 106 -20 106 -5 0 -9 -29 -9 -64z"
       id="path58" />
    <path
       d="M1232 170 c4 -62 2 -80 -9 -85 -19 -7 -13 -45 9 -58 12 -8 21 -7 32 2 19 16 21 50 3 56 -9 4 -11 27 -9 85 4 71 2 80 -13 80 -16 0 -17 -9 -13 -80z"
       id="path59" />
    <path
       d="M1450 190 c0 -33 4 -60 10 -60 6 0 10 27 10 60 0 33 -4 60 -10 60 -6 0 -10 -27 -10 -60z"
       id="path60" />
  </g>
  <path
     style="fill:#ffffff;stroke-width:0.449918"
     d="m 157.57761,142.58452 c -20.2223,-2.96055 -42.68739,-16.84153 -55.09138,-34.04049 -2.72021,-3.77175 -7.869946,-13.453617 -8.460463,-15.906268 l -0.281726,-1.170119 4.547226,-0.517073 c 2.500973,-0.284388 5.673763,-0.517073 7.050643,-0.517073 2.75612,0 2.57706,-0.132806 7.5052,5.566452 2.73806,3.166491 7.70141,5.779531 12.52258,6.592731 4.27877,0.7217 10.50854,0.3288 14.55478,-0.91796 4.53303,-1.39676 10.32438,-4.760331 12.65194,-7.348155 3.21563,-3.575196 3.95161,-7.446677 4.46522,-23.488297 l 0.30327,-9.472076 -4.21104,-3.981972 c -9.16616,-8.66756 -16.48037,-11.576807 -25.58794,-10.177672 -6.49525,0.99782 -11.06018,4.039682 -15.85687,10.566307 -1.28987,1.755062 -2.65202,3.437661 -3.02699,3.73911 -0.87963,0.707159 -2.37799,0.725142 -3.06633,0.0368 -2.29291,-2.292907 2.92731,-10.635874 12.28169,-19.628643 7.20688,-6.928279 13.64521,-11.640117 20.69729,-15.14714 10.10613,-5.025807 18.41277,-6.80061 29.90721,-6.389999 12.50547,0.446728 21.34761,3.273796 32.03475,10.242366 5.18313,3.379666 7.77624,4.658161 8.71629,4.297432 0.82696,-0.317334 3.2409,1.530283 8.93846,6.841437 4.41469,4.115283 6.11265,5.286253 6.11265,4.21549 0,-2.490658 -12.00329,-14.681941 -19.09822,-19.397329 -9.0319,-6.002729 -19.3944,-10.348699 -28.71745,-12.04392 -5.7337,-1.042565 -16.27447,-1.015212 -21.9216,0.05689 -9.42014,1.788399 -20.46119,6.27505 -28.23021,11.471665 -12.18219,8.148531 -24.65218,22.778531 -26.676683,31.297519 -0.607616,2.556816 -1.781638,3.824302 -3.542296,3.824302 -1.983518,0 -2.302591,-0.692284 -1.526763,-3.312588 2.664789,-9.000139 11.175422,-20.550223 21.153382,-28.708017 10.5443,-8.620819 24.2869,-15.351621 36.73146,-17.990196 5.42642,-1.150546 16.74915,-1.3763164 22.56237,-0.449884 9.01782,1.437135 17.196,4.177771 25.87028,8.669534 11.32224,5.862947 21.53686,14.927496 28.33436,25.144189 4.02144,6.044252 7.65907,13.018721 7.65907,14.684816 0,1.358878 -1.7581,1.795051 -8.7734,2.176631 l -5.39901,0.293666 -1.61962,-1.716311 c -0.89079,-0.943968 -2.70529,-3.310946 -4.03223,-5.25995 -1.32693,-1.949002 -3.12889,-4.016254 -4.00435,-4.593892 -3.86116,-2.54763 -15.05794,-3.723288 -20.91952,-2.196542 -6.76326,1.761604 -13.81304,7.66885 -17.2758,14.475972 -2.44168,4.799864 -2.45435,19.51253 -0.0224,26.012503 1.88014,5.025138 8.28521,10.450689 14.95909,12.671434 3.38245,1.12552 4.25277,1.22301 11.10233,1.24368 l 7.43217,0.0224 3.01669,-1.48465 c 3.38728,-1.667036 7.34506,-5.065535 9.43259,-8.099651 l 1.39244,-2.023843 7.85784,0.270009 c 4.32181,0.148504 7.95431,0.366471 8.07221,0.484372 0.44179,0.441802 -6.30721,12.816003 -9.21669,16.898653 -3.43261,4.81671 -10.47777,12.17605 -15.22348,15.90238 -17.24262,13.53885 -39.31959,20.73511 -56.08303,18.28093 z m 22.61451,-6.52407 c 4.15851,-0.90991 5.92233,-1.76602 5.75171,-2.79172 -0.0952,-0.57255 1.15941,-1.41716 4.93193,-3.32006 9.24254,-4.66205 20.55493,-12.69524 26.05516,-18.50236 5.27297,-5.5672 12.21712,-16.778725 11.09028,-17.905572 -1.00252,-1.002516 -2.52273,0.231362 -6.61126,5.366045 -8.27874,10.397057 -21.98489,22.230777 -30.5353,26.363807 -8.3652,4.04351 -14.80624,5.61497 -24.40502,5.95426 -10.77447,0.38084 -20.00866,-1.67059 -29.10223,-6.46523 -3.68235,-1.94154 -5.93101,-3.51949 -14.51221,-10.18361 -1.86092,-1.44518 -3.59154,-2.55825 -3.84581,-2.47349 -0.96119,0.32039 1.68691,4.20866 3.93373,5.77597 1.24158,0.86609 3.64691,2.71304 5.34517,4.10432 8.18271,6.70358 19.73547,11.36143 31.61271,12.74563 5.89998,0.6876 8.14335,1.24048 8.14335,2.00696 0,1.01733 5.91584,0.68863 12.14779,-0.67495 z m -6.47027,-8.97026 c 2.19765,-0.37757 5.61542,-1.21387 7.59506,-1.85845 4.77226,-1.55387 15.66121,-6.50405 15.20631,-6.91288 -0.19746,-0.17747 -2.28242,-0.77901 -4.63324,-1.33677 -5.32643,-1.26375 -12.49104,-4.00012 -15.9898,-6.10696 -1.4628,-0.88086 -3.78483,-2.67481 -5.16005,-3.98655 -4.15536,-3.96353 -5.79311,-3.91152 -10.70973,0.34014 -5.67333,4.90601 -12.46858,8.35385 -18.85996,9.56933 -1.92256,0.36563 -4.10295,0.82355 -4.84532,1.0176 l -1.34975,0.35283 2.92447,1.88088 c 3.57451,2.29895 8.19283,4.12992 14.36049,5.69334 8.46477,2.14571 14.58052,2.5297 21.46152,1.34749 z m 27.6074,-15.55065 c 2.15143,-0.4614 4.95811,-2.24416 4.95811,-3.14932 0,-0.22546 -0.9617,-0.41112 -2.13711,-0.41258 -3.44038,-0.004 -10.31953,-1.19715 -15.40969,-2.67212 -5.34405,-1.54854 -6.29885,-1.6555 -6.29885,-0.70563 0,0.40595 1.86336,1.56093 4.74055,2.93834 3.50078,1.67597 4.851,2.56002 5.16292,3.38041 0.3934,1.03474 0.63758,1.11092 3.56078,1.11092 1.72613,0 4.16661,-0.22051 5.42329,-0.49002 z m -61.8547,-0.86908 c 3.81003,-0.41694 4.63701,-0.65313 5.39901,-1.54196 0.49491,-0.57728 2.17895,-1.7147 3.74231,-2.52759 3.09483,-1.60921 8.48109,-6.31817 9.95527,-8.703455 1.10224,-1.783461 1.23441,-3.864614 0.24543,-3.864614 -0.37363,0 -2.24641,1.453522 -4.16174,3.230046 -6.09612,5.654343 -15.02386,9.181773 -24.4036,9.642083 -5.97556,0.29326 -6.7859,0.45504 -6.4652,1.29077 0.13849,0.36091 1.19428,1.28925 2.34619,2.06299 2.32564,1.56213 2.71896,1.57427 13.34233,0.41173 z m 25.16089,-23.498867 c 0.11418,-0.556774 0.33246,-2.982893 0.48508,-5.39138 0.47664,-7.522128 2.81646,-15.651271 6.61194,-22.97162 1.39912,-2.698491 2.88764,-4.670272 5.52482,-7.318497 5.9412,-5.966104 12.06789,-8.468959 22.13903,-9.044163 5.64899,-0.322638 6.12798,-0.666953 3.60492,-2.591382 -2.65728,-2.026814 -4.74025,-2.641188 -8.86166,-2.613767 -11.44215,0.07613 -24.50865,9.047319 -29.96544,20.573666 -2.05645,4.343813 -2.62557,9.118315 -2.27931,19.121511 0.1499,4.330459 0.49083,8.632799 0.75763,9.560755 0.53803,1.871343 1.65938,2.252973 1.98299,0.674877 z m -4.32969,-33.721347 c 1.66069,-1.660693 -0.59219,-5.845683 -4.90644,-9.114271 -8.52052,-6.45537 -22.21288,-9.167653 -24.97784,-4.947793 -1.30382,1.989888 0.0977,2.711804 6.51845,3.357639 3.75103,0.377299 4.88924,0.709217 8.45806,2.466489 2.26807,1.116787 5.81117,3.28253 7.87356,4.81276 3.47746,2.580168 5.64589,3.955574 6.24685,3.962306 0.1361,0.0015 0.49041,-0.240184 0.78736,-0.53713 z m 9.49871,-9.45448 c 5.07973,-3.821918 11.67598,-7.360295 17.4622,-9.36713 4.78912,-1.661007 5.57033,-2.289288 4.42297,-3.557112 -0.97908,-1.081875 -9.50681,-3.876889 -14.59736,-4.784371 -10.2491,-1.827088 -27.83811,-0.265809 -34.4683,3.059562 -4.28537,2.149333 -4.53254,3.603749 -0.78735,4.633126 8.28406,2.276903 14.44732,5.442783 19.83248,10.187351 1.89793,1.672151 3.53421,3.047904 3.63618,3.057231 0.10198,0.0093 2.12661,-1.44357 4.49918,-3.228657 z"
     id="path61"
     transform="scale(0.75)" />
  <path
     style="fill:#ffffff;stroke-width:0.449918"
     d="m 192.21057,93.819496 c -3.31804,-0.690986 -6.53139,-2.031909 -9.89038,-4.127238 l -2.14614,-1.338759 3.34076,-3.239356 c 3.95646,-3.836366 5.45733,-4.545528 10.33301,-4.882366 8.94395,-0.617895 15.95729,1.52878 19.25167,5.892637 0.91957,1.2181 1.77076,2.592583 1.89153,3.054407 0.33733,1.28994 -1.19415,2.380817 -5.24912,3.738961 -4.53479,1.518852 -12.5807,1.93269 -17.53133,0.901714 z"
     id="path62"
     transform="scale(0.75)" />
  <path
     style="fill:#ffffff;stroke-width:0.449918"
     d="m 193.33139,74.628696 c -2.75276,-1.362588 -4.25217,-3.513258 -4.49556,-6.44817 -0.26501,-3.195663 0.45821,-5.159394 2.90064,-7.875962 1.95235,-2.171484 2.1338,-2.265155 4.38777,-2.265155 3.22496,0 6.58922,1.081377 8.01555,2.576451 3.80214,3.98536 2.4747,11.780191 -2.44175,14.338219 -1.85865,0.967053 -6.08789,0.802577 -8.36665,-0.325383 z m 2.74348,-13.292614 c 1.46324,-0.747877 1.99786,-1.793074 1.28287,-2.508063 -0.3676,-0.367599 -1.16071,-0.04607 -2.98421,1.209827 -1.36595,0.940767 -2.48355,1.90438 -2.48355,2.141362 0,0.533776 2.46103,0.03795 4.18489,-0.843126 z"
     id="path63"
     transform="scale(0.75)" />
  <path
     style="fill:#ffffff;stroke-width:0.449918"
     d="m 123.62224,93.378691 c -3.40884,-0.773136 -5.47227,-1.928322 -5.80379,-3.249174 -0.50675,-2.019068 4.84079,-8.016706 8.19642,-9.192853 2.33004,-0.816678 13.7098,-0.846263 15.99533,-0.04158 0.92578,0.325948 2.74467,1.738456 4.19049,3.254243 2.17905,2.284506 2.53391,2.891679 2.41345,4.129443 -0.17572,1.805522 -1.99723,3.122887 -6.17596,4.466619 -3.86148,1.241719 -14.54756,1.601391 -18.81594,0.633307 z"
     id="path64"
     transform="scale(0.75)" />
  <path
     style="fill:#ffffff;stroke-width:0.449918"
     d="m 128.63573,74.421903 c -0.9876,-0.640368 -2.29352,-1.890928 -2.90205,-2.779022 -0.95539,-1.394304 -1.10642,-2.121387 -1.10642,-5.326513 0,-4.485507 0.66136,-5.646788 4.26539,-7.489603 2.93763,-1.502067 5.02845,-1.563563 7.6485,-0.224959 3.88667,1.985734 6.02914,6.343727 4.98926,10.148652 -0.61855,2.263254 -3.00729,5.087701 -5.17137,6.114624 -2.3646,1.122073 -5.59523,0.936693 -7.72331,-0.443179 z m 2.21324,-13.275468 c 2.10904,-1.396971 2.75109,-2.657108 1.3538,-2.657108 -0.98089,0 -4.94978,2.556398 -5.27182,3.395628 -0.43985,1.146239 1.67414,0.747766 3.91802,-0.73852 z"
     id="path65"
     transform="scale(0.75)" />
  <path
     style="fill:#ffffff;stroke-width:0.449918"
     d="m 56.689655,87.320033 c -4.871392,-0.599481 -7.504598,-2.554037 -8.774255,-6.512886 -1.273724,-3.971533 0.555153,-10.056876 3.834984,-12.760389 2.974934,-2.452193 4.307235,-2.620648 25.860453,-3.269781 17.97876,-0.541479 22.836463,-0.25551 26.698973,1.571749 8.12009,3.841421 9.38752,13.227919 2.46339,18.243735 -3.81513,2.763666 -4.39419,2.827117 -26.912773,2.948987 -11.259196,0.06093 -21.686043,-0.0387 -23.170772,-0.221415 z M 76.19911,82.3617 c 0.832006,-0.243539 1.74309,-0.752457 2.02463,-1.130928 0.432445,-0.58133 2.327435,-0.706157 12.209757,-0.804279 10.031223,-0.0996 11.697863,-0.212021 11.697863,-0.789063 0,-1.255333 -3.423144,-1.845727 -13.047616,-2.250336 -10.16567,-0.427362 -22.338358,-0.177171 -25.102674,0.515946 -1.176069,0.294884 -1.837266,0.770768 -2.125975,1.530129 -0.546588,1.437636 -1.344396,1.392625 -2.831675,-0.159759 -2.585202,-2.69837 -0.92862,-5.593476 3.56728,-6.234314 3.237124,-0.461415 33.685931,-0.505698 35.299264,-0.05134 0.636693,0.17931 2.117036,1.058591 3.289666,1.953958 2.46027,1.878557 3.69105,1.841048 4.86619,-0.148299 0.9734,-1.647825 0.38312,-2.954373 -2.11882,-4.689885 -2.89984,-2.011527 -6.191636,-2.267032 -26.456957,-2.05355 -19.684251,0.207361 -21.767341,0.445107 -24.069293,2.747058 -0.956618,0.956619 -1.194662,1.673438 -1.324998,3.989958 -0.280614,4.987509 1.649234,7.079215 7.366729,7.984583 3.151107,0.498979 14.609185,0.218706 16.756629,-0.409881 z m 21.99041,0.140939 c 1.88441,-0.505064 0.524046,-1.067499 -2.581967,-1.067499 -4.597854,0 -4.597854,1.121378 0,1.282339 0.866092,0.03032 2.027978,-0.06636 2.581967,-0.21484 z"
     id="path66"
     transform="scale(0.75)" />
  <path
     style="fill:#ffffff;stroke-width:0.449918"
     d="m 76.745522,46.07659 c -0.761351,-0.640635 -1.384274,-1.567292 -1.384274,-2.05924 0,-1.269572 2.403795,-3.524739 3.757038,-3.524739 2.427963,0 3.998723,4.348235 2.168947,6.00416 -1.191488,1.078282 -2.954759,0.915151 -4.541711,-0.420181 z"
     id="path67"
     transform="scale(0.75)" />
  <path
     style="fill:#ffffff;stroke-width:0.449918"
     d="m 85.982455,53.728391 c -0.481244,-1.254101 -0.292681,-3.211152 0.361726,-3.754262 0.831707,-0.690255 1.254834,-0.01876 1.254834,1.991388 0,2.280184 -0.999705,3.370372 -1.61656,1.762874 z"
     id="path68"
     transform="scale(0.75)" />
  <path
     style="fill:#ffffff;stroke-width:0.449918"
     d="m 22.720854,60.552066 c -1.051976,-0.379655 -1.574713,-0.853691 -1.574713,-1.428004 0,-0.7066 0.440667,-0.911861 2.474549,-1.152637 3.243109,-0.383927 8.958611,-0.440605 10.224043,-0.101388 0.843987,0.226243 0.526878,0.506939 -2.024631,1.792142 -3.315692,1.670126 -6.16515,1.948797 -9.099248,0.889887 z"
     id="path69"
     transform="scale(0.75)" />
  <path
     style="fill:#ffffff;stroke-width:0.449918"
     d=""
     id="path70"
     transform="scale(0.75)" />
  <path
     style="fill:#ffffff;stroke-width:0.15907"
     d="m 33.56377,78.479077 c -1.309194,-0.265827 -2.32576,-0.610527 -2.558294,-0.867475 -0.258832,-0.286006 -0.259056,-0.320913 -0.0039,-0.602899 0.635331,-0.702032 3.610496,-1.111036 5.983264,-0.822535 3.583063,0.435658 3.848257,1.677167 0.475149,2.224416 -0.997314,0.161803 -3.242341,0.201269 -3.896257,0.06849 z"
     id="path71"
     transform="scale(0.75)" />
  <path
     style="fill:#ffffff;stroke-width:0.15907"
     d="m 23.216989,78.190135 c -0.799019,-0.79902 -0.307855,-2.059234 0.802581,-2.059234 1.110435,0 1.6016,1.260214 0.80258,2.059234 -0.497614,0.497614 -1.107546,0.497614 -1.605161,0 z"
     id="path72"
     transform="scale(0.75)" />
  <path
     style="fill:#ffffff;stroke-width:0.15907"
     d="M 8.7488499,78.32261 C 6.3509397,77.978174 2.6319734,76.918933 2.8954652,76.655441 3.1575069,76.393399 7.544363,76.155915 10.49862,76.243842 c 2.806741,0.08353 4.334687,0.320847 4.743826,0.736783 0.248486,0.252613 -0.460924,0.878606 -1.284316,1.133297 -0.602042,0.186223 -4.3268426,0.335442 -5.2092801,0.208688 z"
     id="path73"
     transform="scale(0.75)" />
  <path
     style="fill:#ffffff;stroke-width:0.15907"
     d="m 14.4078,88.839171 c -0.788307,-0.354815 -0.444709,-0.564046 0.989365,-0.602462 1.268504,-0.03398 1.80066,0.172038 1.422132,0.550566 -0.297017,0.297017 -1.79527,0.32926 -2.411497,0.0519 z"
     id="path74"
     transform="scale(0.75)" />
  <path
     style="fill:#ffffff;stroke-width:0.15907"
     d="M 33.643305,90.486582 C 31.843049,90.37472 30.363554,90.05515 29.732917,89.64194 c -0.483554,-0.316836 -0.379098,-0.513356 0.471143,-0.886401 1.102254,-0.483616 3.072627,-0.678069 5.956474,-0.587836 2.815724,0.0881 4.319312,0.367306 4.858899,0.902261 0.290486,0.287993 0.28786,0.301283 -0.111199,0.562756 -1.031999,0.676192 -4.176469,1.045768 -7.264929,0.853862 z"
     id="path75"
     transform="scale(0.75)" />
  <path
     style="fill:#ffffff;stroke-width:0.15907"
     d="M 8.8008593,98.134041 C 7.7688726,97.982604 6.7604749,97.602308 6.7604749,97.364553 c 0,-0.256305 0.560855,-0.490694 1.7963917,-0.750736 2.4109624,-0.507434 15.3900094,-0.433254 15.9142184,0.09096 0.329778,0.329777 -3.574197,1.124492 -7.05292,1.435733 -2.124931,0.190116 -7.304162,0.186232 -8.6173057,-0.0065 z"
     id="path76"
     transform="scale(0.75)" />
  <path
     style="fill:#ffffff;stroke-width:0.15907"
     d="m 23.798753,106.40738 c -1.935059,-0.34392 -2.224684,-0.91848 -0.813138,-1.61311 1.67246,-0.82303 4.593033,-0.93863 6.774052,-0.26813 1.713263,0.52671 1.942395,1.26788 0.527356,1.70583 -0.866197,0.26809 -5.293405,0.38778 -6.48827,0.17541 z"
     id="path77"
     transform="scale(0.75)" />
  <path
     style="fill:#ffffff;stroke-width:0.15907"
     d="m 45.684642,106.36329 c -1.089242,-0.24707 -1.71135,-0.75557 -1.444206,-1.18046 0.50441,-0.80228 4.499722,-1.34369 7.601027,-1.03003 1.838974,0.186 2.194365,0.3325 1.840608,0.75875 -0.949361,1.14391 -5.618158,1.99141 -7.997429,1.45174 z"
     id="path78"
     transform="scale(0.75)" />
  <path
     style="fill:#ffffff;stroke-width:0.15907"
     d="M 66.332189,96.390084 C 63.97,95.791542 61.929927,95.264769 61.798694,95.219477 c -0.563231,-0.194385 6.68886,0.06684 7.833676,0.282178 1.428183,0.268634 2.404714,0.698106 2.476951,1.089345 0.05428,0.293997 -0.82129,0.929416 -1.243637,0.902531 -0.131232,-0.0084 -2.171305,-0.504905 -4.533495,-1.103447 z"
     id="path79"
     transform="scale(0.75)" />
  <path
     style="fill:#ffffff;stroke-width:0.15907"
     d="m 65.56111,106.35739 c -0.424093,-0.11901 -0.957373,-0.40268 -1.185066,-0.63038 l -0.413987,-0.41398 0.36122,-0.38451 c 0.51095,-0.54388 1.627441,-0.82008 3.231243,-0.79936 1.112262,0.0144 1.530649,0.0919 2.147445,0.39768 0.60978,0.30234 0.766044,0.46094 0.766044,0.7775 0,0.94888 -2.990922,1.59075 -4.906899,1.05305 z"
     id="path80"
     transform="scale(0.75)" />
  <path
     style="fill:#ffffff;stroke-width:0.15907"
     d="m 40.801455,114.3578 c -5.254215,-0.17389 -7.600288,-0.63001 -6.296351,-1.22413 1.405524,-0.64039 5.475752,-0.90771 13.534036,-0.88884 8.332959,0.0195 11.809746,0.27678 11.456863,0.84775 -0.541916,0.87684 -10.357486,1.54115 -18.694548,1.26522 z"
     id="path81"
     transform="scale(0.75)" />
  <path
     style="fill:#ffffff;stroke-width:0.15907"
     d="m 76.726146,158.11226 c -1.087703,-0.57463 -2.519992,-2.80819 -2.519992,-3.92976 0,-0.69197 0.190993,-1.04365 1.124006,-2.06966 1.178478,-1.29594 1.712701,-3.24041 2.06555,-7.51821 0.371009,-4.49796 -0.220194,-10.1953 -1.295283,-12.48245 -0.188705,-0.40146 -0.645325,-1.06778 -1.01471,-1.48072 -1.417343,-1.58447 -1.395881,-1.91799 0.304229,-4.72756 0.317643,-0.52493 0.715496,-1.40092 0.884117,-1.94665 0.720666,-2.33238 1.106475,-7.36291 1.113366,-14.51709 0.01034,-10.737992 0.746304,-17.922034 1.576612,-15.390023 0.247995,0.756253 0.615206,4.216341 0.814545,7.675123 0.34555,5.99575 0.445769,17.02101 0.271115,29.82563 -0.225863,16.5589 -0.05052,19.30373 1.364877,21.36528 1.007413,1.46732 1.050143,2.09528 0.216905,3.18771 -1.575927,2.06615 -3.390045,2.8089 -4.905337,2.00838 z"
     id="path82"
     transform="scale(0.75)" />
  <path
     style="fill:#ffffff;stroke-width:0.15907"
     d="m 86.260704,144.95254 c -0.849532,-0.97261 -1.233705,-5.74243 -1.233144,-15.31049 9.39e-4,-15.99843 0.81562,-34.567481 1.576208,-35.926578 0.40883,-0.730538 0.893361,4.785946 1.283349,14.611198 0.479563,12.08197 0.482664,32.35997 0.0054,35.2192 -0.235014,1.4079 -1.031217,2.09425 -1.631799,1.40667 z"
     id="path83"
     transform="scale(0.75)" />
  <path
     style="fill:#ffffff;stroke-width:0.15907"
     d="m 93.533159,175.14588 c -0.797082,-0.19491 -1.779514,-0.76974 -2.393313,-1.40034 -0.868896,-0.89268 -1.225844,-1.70814 -1.306131,-2.9839 -0.08837,-1.40421 0.296685,-2.50312 1.308325,-3.73379 1.942316,-2.36285 2.105663,-4.55941 2.312938,-31.10254 0.08062,-10.32364 0.222108,-20.02293 0.314424,-21.55398 0.160553,-2.66273 0.504952,-5.32771 0.71575,-5.53851 0.17925,-0.17925 0.359677,0.30867 0.540328,1.46119 0.529187,3.37612 0.774045,11.42585 0.975621,32.07364 0.151921,15.56153 0.248504,18.39573 0.723254,21.22362 0.304681,1.81487 0.625392,2.51615 1.629663,3.56354 2.621212,2.73375 1.583595,6.70756 -2.046434,7.83735 -0.995111,0.30971 -1.925647,0.36127 -2.774425,0.15372 z"
     id="path84"
     transform="scale(0.75)" />
  <path
     style="fill:#ffffff;stroke-width:0.15907"
     d="m 102.85703,157.7699 c -0.34727,-0.17182 -0.95873,-0.66233 -1.3588,-1.09003 -0.85563,-0.91474 -0.93941,-1.46931 -0.33117,-2.19216 0.21792,-0.25898 0.50008,-0.89081 0.62701,-1.40407 0.49352,-1.99549 0.87547,-8.04854 0.88696,-14.05646 0.0107,-5.60112 0.27118,-14.64316 0.47968,-16.65207 0.19809,-1.90864 0.4138,-2.91354 0.62541,-2.91354 0.97803,0 1.94988,21.82083 1.43973,32.32567 -0.17904,3.6866 -0.37831,5.10491 -0.80054,5.69788 -0.41583,0.58398 -0.81649,0.65674 -1.56828,0.28478 z"
     id="path85"
     transform="scale(0.75)" />
  <path
     style="fill:#ffffff;stroke-width:0.15907"
     d="m 112.38192,159.7243 c -1.40484,-0.45404 -2.42958,-1.51717 -2.72204,-2.824 -0.16303,-0.72847 -0.1507,-1.00327 0.0829,-1.84835 0.15092,-0.54596 0.44289,-1.28165 0.64881,-1.63487 0.60032,-1.02974 0.96966,-2.77927 1.35878,-6.4364 0.0884,-0.83114 0.22754,-4.51759 0.30913,-8.19211 0.15064,-6.78412 0.27937,-8.47332 0.73187,-9.60425 0.31145,-0.77838 0.56659,-0.89 1.09117,-0.47737 0.89127,0.70108 1.17066,2.82986 1.36491,10.39976 0.15015,5.85111 0.29423,7.9207 0.73571,10.56765 0.29805,1.78703 0.4742,2.36288 1.26836,4.14633 0.50674,1.13797 0.60345,1.53036 0.61071,2.47782 0.008,0.98225 -0.0524,1.22441 -0.47001,1.90013 -0.6848,1.10798 -1.64842,1.57639 -3.33441,1.62085 -0.70246,0.0185 -1.45662,-0.0243 -1.67591,-0.0952 z"
     id="path86"
     transform="scale(0.75)" />
  <path
     style="fill:#ffffff;stroke-width:0.15907"
     d="m 123.42792,172.92652 c -0.96318,-0.43747 -1.82315,-1.26808 -2.24023,-2.16372 -0.47678,-1.02384 -0.46894,-1.19007 0.0893,-1.89248 0.96604,-1.21561 1.24597,-4.39791 1.44276,-16.40173 0.16725,-10.20147 0.35989,-13.53266 0.89461,-15.46955 0.37843,-1.37079 0.68763,-1.03693 1.00308,1.08309 0.36847,2.47637 0.50635,5.43329 0.64861,13.90925 0.20343,12.12128 0.52544,15.85186 1.45663,16.87572 0.70717,0.77756 0.6025,2.2069 -0.24278,3.31512 -0.80174,1.05113 -1.82629,1.30099 -3.05195,0.7443 z"
     id="path87"
     transform="scale(0.75)" />
  <path
     style="fill:#ffffff;stroke-width:0.15907"
     d="m 131.89719,166.19826 c -1.24013,-1.97685 -2.36667,-10.82107 -2.39721,-18.81991 -0.0184,-4.81708 0.11107,-5.95209 0.76572,-6.71316 0.9549,-1.11014 1.55507,0.51357 2.15587,5.83251 0.49264,4.36144 0.68564,8.81115 0.59731,13.7716 -0.0817,4.59031 -0.25027,6.0866 -0.70227,6.23485 -0.10379,0.034 -0.29252,-0.10361 -0.41942,-0.30589 z"
     id="path88"
     transform="scale(0.75)" />
  <path
     style="fill:#ffffff;stroke-width:0.15907"
     d="m 138.50417,164.2503 c -0.46942,-1.03026 -0.90221,-4.7459 -1.07586,-9.23659 -0.11555,-2.98823 0.15275,-8.59353 0.48696,-10.17331 0.64668,-3.0568 1.42799,-1.03145 1.83816,4.76493 0.2172,3.06953 0.11196,10.74742 -0.17311,12.62834 -0.31874,2.10314 -0.70604,2.82892 -1.07615,2.01663 z"
     id="path89"
     transform="scale(0.75)" />
  <path
     style="fill:#ffffff;stroke-width:0.15907"
     d="m 143.51886,178.75491 c -1.12077,-1.15907 -1.65232,-2.17393 -1.39271,-2.65902 0.0932,-0.17408 0.33824,-0.48535 0.5446,-0.69172 0.20815,-0.20814 0.45068,-0.7271 0.54471,-1.16555 0.50661,-2.36225 0.81752,-7.30425 0.8242,-13.10071 0.009,-7.60482 0.39058,-13.92368 0.88173,-14.59232 0.19055,-0.2594 0.21877,-0.24784 0.37147,0.15209 0.80266,2.1022 1.47018,12.09718 1.50621,22.5528 0.0198,5.74393 -0.1233,7.83601 -0.63519,9.28684 -0.55455,1.57178 -1.27804,1.6313 -2.64502,0.21759 z"
     id="path90"
     transform="scale(0.75)" />
  <path
     style="fill:#ffffff;stroke-width:0.15907"
     d="m 152.40523,171.49584 c -0.29707,-0.32876 -0.29518,-0.36965 0.11643,-2.52256 0.55426,-2.89905 0.72374,-5.08647 0.90289,-11.65305 0.13547,-4.96552 0.28306,-7.02242 0.56617,-7.89044 0.44846,-1.37497 0.67827,-1.49965 1.06915,-0.58004 0.7401,1.74119 0.90674,3.61906 1.13914,12.83667 0.18753,7.43827 0.18462,8.46478 -0.0249,8.78457 -0.32216,0.49168 -1.72237,1.15294 -2.68119,1.26621 -0.66655,0.0787 -0.83151,0.0421 -1.08768,-0.24136 z"
     id="path91"
     transform="scale(0.75)" />
  <path
     style="fill:#ffffff;stroke-width:0.15907"
     d="m 165.41245,179.56331 c -0.70374,-0.23654 -1.94315,-1.2097 -2.5441,-1.9976 -0.72774,-0.95414 -1.1737,-2.25334 -1.1737,-3.41934 0,-1.3133 0.41019,-2.14028 1.33893,-2.6994 0.82844,-0.49872 1.111,-0.97343 1.35044,-2.26868 0.20902,-1.13067 0.21762,-5.42147 0.0166,-8.27899 -0.28125,-3.99803 -0.36797,-8.7018 -0.17885,-9.70122 0.21794,-1.15171 0.66623,-1.66538 1.54466,-1.76993 0.82034,-0.0976 1.34514,0.19704 1.73428,0.97379 0.28314,0.56516 0.31789,0.95003 0.31591,3.49828 -0.001,1.5748 -0.0642,5.15387 -0.13998,7.9535 -0.195,7.20618 0.0688,8.97032 1.45108,9.70327 1.18568,0.62872 1.65653,2.55538 1.08698,4.44784 -0.71552,2.37751 -3.08719,4.13492 -4.80225,3.55848 z"
     id="path92"
     transform="scale(0.75)" />
  <path
     style="fill:#ffffff;stroke-width:0.15907"
     d="m 177.01942,170.13572 c -0.90357,-0.28259 -1.56317,-0.78148 -1.80495,-1.36519 -0.169,-0.408 -0.15837,-0.67653 0.0647,-1.6346 0.43144,-1.85292 0.55678,-3.38919 0.72945,-8.94082 0.0898,-2.88712 0.23955,-5.96114 0.33279,-6.83116 0.19651,-1.8338 0.59523,-3.19025 0.93774,-3.19025 0.35074,0 1.04838,1.5471 1.50632,3.34047 0.71387,2.79564 1.0791,5.7665 1.03643,8.43071 -0.0788,4.91979 -0.0836,4.84574 0.38844,5.96513 0.75097,1.78079 0.78355,1.98451 0.44115,2.75857 -0.34663,0.78362 -0.93061,1.26084 -1.85682,1.51738 -0.77906,0.21578 -0.93916,0.21125 -1.77526,-0.0502 z"
     id="path93"
     transform="scale(0.75)" />
  <path
     style="fill:#ffffff;stroke-width:0.15907"
     d="m 187.64023,178.21615 c -0.887,-0.62128 -1.42893,-2.99858 -1.79,-7.85218 -0.28981,-3.89564 -0.29301,-19.83206 -0.004,-22.09838 0.20395,-1.60173 0.56757,-2.87561 0.82084,-2.87561 0.0674,0 0.20109,0.19685 0.29715,0.43744 0.58248,1.45894 0.80822,4.31015 0.97858,12.36015 0.21517,10.16696 0.56381,13.07555 1.89802,15.83453 0.35527,0.73466 0.64595,1.50414 0.64595,1.70997 0,0.53124 -0.35544,1.1413 -1.06061,1.82034 -0.80805,0.77813 -1.3399,0.97584 -1.78548,0.66374 z"
     id="path94"
     transform="scale(0.75)" />
  <path
     style="fill:#ffffff;stroke-width:0.15907"
     d="m 194.37929,164.8919 c -1.2898,-1.96848 -1.23211,-13.62147 0.0754,-15.2362 l 0.28546,-0.35254 0.27703,0.53571 c 0.47364,0.91592 0.7268,2.82108 0.82571,6.21391 0.12926,4.43374 -0.29306,8.35422 -0.97387,9.04049 -0.18186,0.18332 -0.25827,0.15191 -0.48975,-0.20137 z"
     id="path95"
     transform="scale(0.75)" />
  <path
     style="fill:#ffffff;stroke-width:0.15907"
     d="m 200.38214,164.23977 c -0.67466,-2.51386 -1.20487,-11.01189 -1.12223,-17.98687 l 0.0548,-4.62499 0.44648,-0.67433 c 0.93799,-1.41668 1.19911,-0.5066 1.40979,4.91361 0.2437,6.2698 -0.0373,16.93343 -0.48866,18.54641 l -0.12942,0.46245 z"
     id="path96"
     transform="scale(0.75)" />
  <path
     style="fill:#ffffff;stroke-width:0.15907"
     d="m 207.29057,172.86557 c -0.57682,-0.42178 -0.65891,-2.08603 -0.65298,-13.23883 0.005,-9.98636 0.14109,-14.85552 0.55891,-20.04282 0.18775,-2.33094 0.45423,-4.05628 0.6265,-4.05628 0.23549,0 0.65904,3.05301 0.94892,6.84001 0.0904,1.18109 0.30843,4.97491 0.4845,8.43071 0.53864,10.57277 1.03301,16.32734 1.52371,17.7363 0.34559,0.99233 0.28169,1.68097 -0.2296,2.47421 -0.59064,0.91634 -1.22848,1.50463 -1.96489,1.81224 -0.71784,0.29986 -0.93557,0.30734 -1.29507,0.0445 z"
     id="path97"
     transform="scale(0.75)" />
  <path
     style="fill:#ffffff;stroke-width:0.15907"
     d="m 217.39142,160.08526 c -0.55836,-0.27824 -1.03854,-0.68721 -1.44746,-1.23279 -1.34438,-1.79366 -1.45709,-2.93148 -0.47784,-4.82384 0.35315,-0.68244 0.74413,-1.63474 0.86884,-2.11623 0.60944,-2.35287 1.03054,-6.93895 1.03707,-11.29452 0.01,-6.65726 0.55031,-13.04374 1.10356,-13.04374 0.39506,0 0.86529,4.3877 1.20082,11.20491 0.26026,5.28782 0.534,8.21016 1.02905,10.98535 0.32156,1.8027 0.4819,2.38601 1.18059,4.29489 0.71008,1.93999 0.47008,3.85353 -0.64699,5.15857 -1.10379,1.28952 -2.40974,1.58393 -3.84764,0.8674 z"
     id="path98"
     transform="scale(0.75)" />
  <path
     style="fill:#ffffff;stroke-width:0.15907"
     d="m 228.57065,157.15392 c -0.26958,-0.0809 -0.60639,-0.27547 -0.74846,-0.43245 -0.82336,-0.90981 -1.06546,-4.41121 -1.06395,-15.38778 0.002,-12.82527 0.3572,-20.91429 0.98359,-22.38409 0.86265,-2.02415 1.34913,-1.12895 1.70907,3.14499 0.0888,1.05446 0.26896,5.88621 0.40034,10.73722 0.27895,10.29976 0.49827,15.38028 0.80549,18.6591 0.20565,2.19483 0.25715,2.41852 0.72448,3.14678 0.73826,1.15048 0.64962,1.7802 -0.32045,2.2767 -0.56382,0.28857 -1.89856,0.41696 -2.49011,0.23953 z"
     id="path99"
     transform="scale(0.75)" />
  <path
     style="fill:#ffffff;stroke-width:0.15907"
     d="m 235.7264,175.17327 c -1.86331,-0.66635 -2.92746,-2.1265 -2.92746,-4.01685 0,-1.22293 0.31045,-2.24019 1.08931,-3.56937 1.00811,-1.72042 1.47488,-3.85215 1.76043,-8.03984 0.26657,-3.90926 0.34525,-7.90858 0.49757,-25.29213 0.0809,-9.23004 0.21935,-18.21352 0.30771,-19.96329 0.18872,-3.73667 0.4566,-6.58427 0.65095,-6.91954 0.0761,-0.13123 0.1405,-0.15671 0.14316,-0.0566 0.003,0.10009 0.074,0.88748 0.1586,1.74977 0.39945,4.07264 0.72971,14.46501 0.95975,30.20038 0.22159,15.15738 0.48166,21.79046 0.96672,24.65585 0.3497,2.06576 0.58429,2.59502 1.65602,3.73614 1.14172,1.21563 1.45074,1.9837 1.27355,3.16533 -0.46302,3.08763 -3.81975,5.32167 -6.53631,4.35017 z"
     id="path100"
     transform="scale(0.75)" />
  <path
     style="fill:#ffffff;stroke-width:0.15907"
     d="m 244.91033,144.76696 c -1.64061,-0.56654 -2.01404,-1.37178 -1.66595,-3.59234 0.46607,-2.97318 0.84345,-14.58171 0.84808,-26.08748 0.005,-11.18613 0.52507,-21.269571 1.11694,-21.635369 0.071,-0.04389 0.34871,0.104951 0.61708,0.330769 0.59498,0.500642 0.99683,1.706634 1.3511,4.054785 0.50725,3.362155 0.60279,6.101505 0.73196,20.987965 0.14371,16.56126 0.24923,19.02012 0.95648,22.28785 0.37574,1.73607 -0.49455,3.36511 -2.0248,3.79006 -0.79153,0.21981 -0.92761,0.21021 -1.93089,-0.13624 z"
     id="path101"
     transform="scale(0.75)" />
  <path
     style="fill:#ffffff;stroke-width:0.15907"
     d="m 253.71665,157.58196 c -0.96336,-0.4499 -1.72393,-1.07343 -2.3302,-1.91036 -0.66907,-0.92363 -0.61464,-1.61022 0.26658,-3.36236 1.30721,-2.59911 1.75655,-6.09537 1.62139,-12.61581 -0.10975,-5.29442 -0.45664,-7.58109 -1.44636,-9.53421 -0.22619,-0.44637 -0.48567,-1.14361 -0.57661,-1.54942 -0.17486,-0.78024 -0.008,-1.31577 0.80141,-2.57169 0.77478,-1.20221 1.05883,-4.36056 1.26386,-14.05283 0.26204,-12.386968 0.52557,-16.730608 1.10415,-18.199651 0.20806,-0.528295 0.37264,-0.426576 0.62099,0.38381 0.50796,1.657562 0.77914,6.289711 0.89399,15.270721 0.14274,11.16231 0.49598,13.91408 2.05959,16.04414 0.79717,1.08596 1.08443,1.96386 1.10024,3.3624 0.0106,0.93631 -0.0614,1.33623 -0.33436,1.85856 -0.39403,0.75389 -0.89269,1.16377 -1.41586,1.16377 -0.83447,0 -1.15077,1.84215 -1.2716,7.4058 -0.0963,4.43348 0.0792,7.95802 0.50807,10.20519 0.25758,1.34961 0.36313,1.57214 1.09094,2.29995 1.0294,1.0294 1.15925,2.88947 0.31076,4.45143 -0.8887,1.63599 -2.538,2.15802 -4.26698,1.35056 z"
     id="path102"
     transform="scale(0.75)" />
  <path
     style="fill:#ffffff;stroke-width:0.15907"
     d="m 277.17947,114.43211 c -8.05041,-0.21841 -14.79351,-0.82121 -14.79351,-1.32245 0,-0.60408 5.76811,-0.96409 15.42979,-0.96305 10.80001,0.001 18.20656,0.46217 19.19711,1.19487 0.26778,0.19808 0.24815,0.23085 -0.26778,0.44692 -1.13918,0.47711 -3.37322,0.61533 -10.57815,0.65446 -3.93699,0.0214 -7.98134,0.0165 -8.98746,-0.0108 z"
     id="path103"
     transform="scale(0.75)" />
  <path
     style="fill:#ffffff;stroke-width:0.15907"
     d="m 269.30551,106.24469 c -1.87077,-0.15816 -4.11281,-0.53017 -4.81805,-0.79945 -0.39895,-0.15233 -0.41019,-0.18014 -0.15002,-0.37126 0.80792,-0.59346 4.82913,-0.93544 11.01273,-0.93657 5.94532,-0.001 9.26551,0.26813 10.78299,0.87429 0.92143,0.36807 0.0822,0.78091 -2.21619,1.0902 -1.77538,0.2389 -12.26226,0.34139 -14.61146,0.14279 z"
     id="path104"
     transform="scale(0.75)" />
  <path
     style="fill:#ffffff;stroke-width:0.15907"
     d="m 262.81824,98.458495 c -1.35343,-0.33834 -2.18592,-1.089466 -2.17699,-1.964225 0.0113,-1.103081 0.97053,-1.534423 3.66524,-1.648099 1.49024,-0.06287 1.93512,-0.02899 2.33501,0.177804 0.82192,0.425031 0.8527,1.113028 0.095,2.12448 -0.82405,1.100087 -2.50714,1.662811 -3.91829,1.31004 z"
     id="path105"
     transform="scale(0.75)" />
  <path
     style="fill:#ffffff;stroke-width:0.15907"
     d="m 295.09762,106.41094 c -0.7309,-0.18379 -1.49291,-0.61117 -1.60349,-0.89935 -0.35722,-0.93089 2.14404,-1.70523 4.29709,-1.33029 2.208,0.3845 2.73443,1.20481 1.23807,1.92919 -0.81381,0.39396 -2.91977,0.55489 -3.93167,0.30045 z"
     id="path106"
     transform="scale(0.75)" />
  <path
     style="fill:#ffffff;stroke-width:0.15907"
     d="m 241.70686,87.79622 c -13.45841,-0.336021 -18.5887,-1.639423 -20.48943,-5.205556 -0.78189,-1.46699 -1.03318,-2.788436 -1.04993,-5.52125 -0.0129,-2.100245 0.0299,-2.519425 0.35681,-3.49954 1.29435,-3.880252 4.36055,-6.740042 8.42381,-7.856738 2.43489,-0.669177 3.82097,-0.733234 15.78107,-0.729313 12.93124,0.0042 22.22757,0.35668 29.58702,1.121698 4.16438,0.432889 4.9853,0.760671 6.30632,2.518012 2.39904,3.19143 3.55822,8.298512 2.55293,11.247642 -0.5597,1.641949 -1.79337,3.562759 -3.21226,5.001445 -1.71585,1.739795 -2.80321,2.216774 -5.96513,2.616655 -3.25725,0.411939 -21.23972,0.582873 -32.29121,0.306945 z m 29.50749,-4.767557 c 1.66867,-0.237744 3.05887,-0.751458 3.76849,-1.392557 0.80302,-0.725485 0.92246,-0.965893 1.09892,-2.211887 0.18957,-1.338621 0.42504,-1.651179 1.53432,-2.036665 l 0.91549,-0.31814 0.0485,-0.75665 c 0.0799,-1.24532 -0.64145,-2.380802 -3.06945,-4.831822 -2.32133,-2.343335 -2.64145,-2.524363 -5.38115,-3.043009 -1.32406,-0.250655 -2.86234,-0.27573 -16.49238,-0.268843 -15.81436,0.008 -18.78572,0.106414 -21.85076,0.723785 -2.02278,0.407434 -3.22301,0.963889 -4.77156,2.212218 -3.49414,2.816709 -3.82325,4.931267 -1.25258,8.04782 1.63782,1.985604 3.32377,2.895577 6.03858,3.259263 1.73185,0.232005 11.24097,0.120359 11.85468,-0.139184 0.5712,-0.241566 0.55548,-0.600876 -0.0398,-0.908688 -1.03755,-0.536538 -0.61548,-0.664844 2.9428,-0.894595 2.87488,-0.185625 13.57178,-0.06357 14.87304,0.169706 0.3937,0.07058 0.66164,0.137283 0.59542,0.148233 -0.0662,0.01095 -1.92734,0.234859 -4.13582,0.497575 -4.57625,0.544378 -5.25628,0.641015 -5.16354,0.733762 0.0521,0.05205 6.27676,0.709308 10.05604,1.061799 1.42319,0.132739 7.39222,0.09584 8.43071,-0.05212 z"
     id="path107"
     transform="scale(0.75)" />
  <path
     style="fill:#ffffff;stroke-width:0.15907"
     d="m 292.60926,90.497489 c -4.48599,-0.119168 -6.84676,-0.368261 -7.6854,-0.810914 -0.78863,-0.41626 0.79747,-0.90759 4.10633,-1.272023 2.57432,-0.283533 14.67237,-0.286047 16.75905,-0.0035 2.00853,0.271983 2.95231,0.485151 3.30602,0.746716 0.27609,0.204163 0.25462,0.236172 -0.32069,0.478304 -0.98077,0.412772 -3.72812,0.712656 -7.33692,0.800853 -1.83726,0.0449 -3.73417,0.09924 -4.21536,0.120744 -0.48118,0.02151 -2.55705,-0.0056 -4.61303,-0.0602 z"
     id="path108"
     transform="scale(0.75)" />
  <path
     style="fill:#ffffff;stroke-width:0.15907"
     d="m 232.13348,79.619648 c -1.92644,-0.489143 -3.17842,-2.467434 -2.45134,-3.873448 0.41652,-0.805455 1.34571,-1.626628 2.38689,-2.109415 2.10294,-0.975108 8.44026,-1.334937 23.55646,-1.337516 12.47444,-0.0021 14.50458,0.0962 15.82604,0.766558 2.04852,1.039171 2.33176,4.147207 0.54113,5.937837 -0.55592,0.555918 -0.80072,0.690405 -1.2567,0.690405 -0.47348,0 -0.61771,-0.08713 -0.87996,-0.531615 -0.38764,-0.657009 -0.74255,-0.822992 -2.41316,-1.128578 -5.47384,-1.00127 -20.45096,-1.172856 -28.50923,-0.326618 -3.10543,0.326116 -4.02671,0.579776 -4.6235,1.273013 -0.60836,0.70667 -1.21258,0.884158 -2.17663,0.639377 z"
     id="path109"
     transform="scale(0.75)" />
  <path
     style="fill:#ffffff;stroke-width:0.15907"
     d="m 319.49209,97.810606 c -0.59615,-0.234379 -2.06791,-1.146263 -2.06791,-1.281249 0,-0.173246 1.09993,-0.449166 1.79465,-0.450191 1.42702,-0.0021 2.46373,0.967319 1.77306,1.657986 -0.27921,0.279216 -0.8992,0.30958 -1.4998,0.07345 z"
     id="path110"
     transform="scale(0.75)" />
  <path
     style="fill:#ffffff;stroke-width:0.15907"
     d="m 320.25247,78.406826 c -2.50823,-0.279104 -3.82951,-0.865088 -3.324,-1.474185 0.24583,-0.296213 1.82511,-0.824494 3.12037,-1.043788 1.02465,-0.173478 8.3208,-0.851773 9.40081,-0.873957 1.29888,-0.02668 2.07706,0.845067 1.59189,1.783287 -0.54356,1.051129 -2.74432,1.603151 -6.77735,1.699976 -1.44356,0.03466 -3.24883,-0.0064 -4.01172,-0.09133 z"
     id="path111"
     transform="scale(0.75)" />
  <path
     style="fill:#ffffff;stroke-width:0.15907"
     d="m 306.13021,78.257974 c -0.87539,-0.407752 -1.43163,-0.909797 -1.43163,-1.292156 0,-1.0348 3.14266,-1.19475 4.20111,-0.21382 0.51824,0.480292 0.51493,0.594784 -0.035,1.210229 -0.5966,0.667711 -1.68356,0.78527 -2.73451,0.295747 z"
     id="path112"
     transform="scale(0.75)" />
  <path
     style="fill:#ffffff;stroke-width:0.15907"
     d="m 291.64944,77.636018 c -0.81055,-0.155256 -0.98003,-0.290975 -0.79502,-0.636664 0.38362,-0.716807 2.73778,-1.113142 4.85203,-0.816867 0.69734,0.09772 1.32835,0.238136 1.40225,0.312035 0.42112,0.421113 -4.18837,1.384927 -5.45926,1.141496 z"
     id="path113"
     transform="scale(0.75)" />
  <path
     style="fill:#ffffff;stroke-width:0.15907"
     d="m 294.0562,69.023378 c -3.75224,-0.23853 -6.08559,-0.672956 -5.8306,-1.08555 0.5001,-0.809167 6.81204,-1.19032 17.91438,-1.081777 9.02428,0.08823 11.2842,0.268154 11.2842,0.898412 0,0.473925 -3.35656,0.998459 -8.16998,1.276734 -3.21569,0.185906 -12.22346,0.181272 -15.198,-0.0078 z"
     id="path114"
     transform="scale(0.75)" />
  <path
     style="fill:#ffffff;stroke-width:0.15907"
     d="m 292.83545,58.473051 c -1.36594,-0.220058 -1.98006,-0.451949 -1.68305,-0.635512 0.34402,-0.212616 2.85063,-0.410855 5.19501,-0.410855 2.56877,0 4.64372,0.182692 5.40838,0.476189 l 0.47721,0.183167 -0.47721,0.262963 c -0.39809,0.219365 -1.07061,0.268609 -4.05629,0.297014 -2.3357,0.02222 -4.02547,-0.03787 -4.86405,-0.172966 z"
     id="path115"
     transform="scale(0.75)" />
  <path
     style="fill:#ffffff;stroke-width:0.079535"
     d="m 281.80314,58.372212 c -0.54828,-0.07466 -1.08436,-0.271159 -1.08436,-0.397462 0,-0.188325 0.42732,-0.265996 1.63047,-0.296352 1.71985,-0.04339 2.63446,0.129928 2.2364,0.423806 -0.33418,0.246719 -1.86366,0.395136 -2.78251,0.270008 z"
     id="path116"
     transform="scale(0.75)" />
  <path
     style="fill:#ffffff;stroke-width:0.079535"
     d="m 244.0737,54.978568 c 0.0265,-2.910471 0.0592,-3.782906 0.16322,-4.359121 0.25116,-1.390861 0.6661,-2.431628 1.0134,-2.541859 0.41377,-0.131322 0.84822,0.563204 1.1258,1.799747 0.15215,0.677752 0.17071,1.053274 0.201,4.067278 l 0.0334,3.320586 0.45121,0.0012 c 0.24817,6.66e-4 2.8492,0.106864 5.78006,0.235994 2.93087,0.129132 7.8057,0.315158 10.83297,0.413394 3.02727,0.09824 5.49489,0.187843 5.48361,0.199129 -0.0113,0.01129 -2.77447,0.07564 -6.14041,0.143003 -3.36593,0.06737 -8.77801,0.175782 -12.02684,0.240924 -3.24882,0.06514 -6.14175,0.118438 -6.42873,0.118438 h -0.52179 z"
     id="path117"
     transform="scale(0.75)" />
  <path
     style="fill:#ffffff;stroke-width:0.079535"
     d="m 251.94567,47.802083 c -0.53874,-0.244527 -1.09404,-0.891277 -1.53706,-1.790176 -0.51074,-1.036293 -0.71886,-1.847563 -0.73478,-2.86417 -0.0174,-1.107812 0.14871,-1.601079 0.73868,-2.194162 1.60183,-1.610299 5.06066,-0.978624 6.03243,1.101686 0.1884,0.403317 0.21318,0.552996 0.2138,1.291314 8.1e-4,0.962867 -0.16555,1.563279 -0.65921,2.379129 -0.97822,1.616655 -2.89909,2.600522 -4.05386,2.076379 z"
     id="path118"
     transform="scale(0.75)" />
  <path
     style="fill:#ffffff;stroke-width:0.0562397"
     d="m 334.289,68.589615 c -0.55532,-0.176697 -1.90584,-0.949811 -2.13507,-1.222238 -0.17962,-0.21347 -0.13718,-0.281587 0.27022,-0.433672 0.58448,-0.21819 1.58971,-0.29648 2.18546,-0.170208 0.55845,0.118367 1.04704,0.429664 1.2265,0.781445 0.22575,0.442499 0.0948,0.873966 -0.31747,1.046233 -0.22969,0.09597 -0.92591,0.09508 -1.22964,-0.0016 z"
     id="path119"
     transform="scale(0.75)" />
  <path
     style="fill:#ffffff;stroke-width:0.0397675"
     d="m 58.15918,58.414969 c -1.746461,-0.06018 -3.626596,-0.277341 -3.41695,-0.394665 0.5995,-0.335497 9.399874,-0.364118 10.44701,-0.03398 0.169597,0.05347 0.135443,0.09746 -0.117841,0.151782 -1.134472,0.2433 -4.256824,0.368362 -6.912219,0.276859 z"
     id="path120"
     transform="scale(0.75)" />
  <path
     style="fill:#ffffff;stroke-width:0.0397675"
     d="m 75.955924,58.4316 c -1.942064,-0.05572 -3.956866,-0.264254 -3.956866,-0.409531 0,-0.172931 2.915847,-0.307244 5.706636,-0.262865 4.149935,0.06599 5.310007,0.30887 2.667939,0.558572 -1.172852,0.110847 -2.937172,0.156305 -4.417709,0.113824 z"
     id="path121"
     transform="scale(0.75)" />
</svg>
